<?xml version="1.0" encoding="UTF-8"?> <svg xmlns="http://www.w3.org/2000/svg" viewBox="0 0 388.54 365.21"> <title>Asset 6</title> <g id="Layer_2" data-name="Layer 2"> <g id="Слой_2" data-name="Слой 2"> <path d="M180.15,256.38l-.32-.05h-.07C179.89,256.35,180,256.36,180.15,256.38Z"></path> <path d="M301.69,292.5h0l.12-.05Z"></path> <path d="M292.52,291.84h0Z"></path> <path d="M132.67,138.05l0-.06v0Z"></path> <path d="M210.09,132.56l.06,0v0Z"></path> <path d="M196.92,228.3h0Z"></path> <path d="M195.45,131.54l0,0h0l0,0Z"></path> <path d="M80,278l-.19.14,0,0Z"></path> <path d="M26.28,315.73v0Z"></path> <path d="M71.48,312.5l-.19,0,.21,0Z"></path> <path d="M88.63,282.87l0,0,0,0Z"></path> <path d="M332,282.93l.09-.07.22-.16Z"></path> <path d="M104.57,119.46l-.11-.09.1.08Z"></path> <path d="M72.07,87.74l.15.07.2.09Z"></path> <path d="M95.53,357.25h0l.36.06Z"></path> <path d="M125.53,353.22a5.81,5.81,0,0,0-1.5.18l-1.28.29c-.86.18-1.71.35-2.55.59s-1.57.41-2.35.66-1.52.54-2.26.85-1.48.45-2.22.64-1.77.43-2.65.62-1.69.38-2.54.51-1.46.26-2.19.36c-1.25.1-2.51.07-3.77.05a27.42,27.42,0,0,1-3.51-.18c-1.06-.17-2.11-.37-3.16-.54l-.85-.13c-2.89-.47-5.74-1.18-8.64-1.57a36.66,36.66,0,0,0-8.44-.08l-1.11.13.4-.05a20.27,20.27,0,0,0-3.2.49,16.48,16.48,0,0,0-2.86,1.16c-.74.37-1.44.81-2.17,1.2s-1.58.79-2.4,1.13c-1.39.53-2.81,1-4.22,1.47a17.39,17.39,0,0,1-2.14.6c-.72.16-1.46.26-2.2.35a56,56,0,0,1-6.21.24c-1.09,0-2.18-.07-3.27-.15s-2.11-.16-3.15-.3-2.28-.45-3.4-.72a23,23,0,0,1-3.27-1,11.56,11.56,0,0,1-2-1.19c-.84-.69-1.67-1.37-2.56-2s-1.65-1-2.44-1.61a7.06,7.06,0,0,1-.82-.82,6.15,6.15,0,0,1-.57-1c-.44-1.21-.63-2.5-1.08-3.72a8.66,8.66,0,0,0-1-2,8.11,8.11,0,0,0-1.36-1.56,7.84,7.84,0,0,0-1.8-1.14c-.71-.32-1.45-.59-2.18-.85-1.46-.49-3-.79-4.45-1.22-.84-.23-1.67-.49-2.51-.73s-1.81-.48-2.72-.72a42.61,42.61,0,0,1-5.66-1.64,6.1,6.1,0,0,1-.72-.37,9.75,9.75,0,0,1-.84-.59,13.11,13.11,0,0,1-2-2,6.77,6.77,0,0,1-.52-.9,4.07,4.07,0,0,1-.14-.58,5,5,0,0,1,0-.77,11.9,11.9,0,0,1,.67-2.2,10,10,0,0,1,1.1-1.9,13.53,13.53,0,0,1,2-1.87l.64-.48-.05,0,.77-.58a13.79,13.79,0,0,1,2.54-1.5c1-.36,2-.63,3.06-1s2-.74,3-1.14c.45-.18.9-.34,1.36-.51.73-.28,1.43-.62,2.14-.93a7.8,7.8,0,0,1,1.35-.32c.81-.08,1.63-.12,2.45-.12.06.37.1.74.17,1.12.12.69.25,1.38.43,2.06A17.23,17.23,0,0,0,26.1,329a10.31,10.31,0,0,0,2.67,3.1c.43.36.88.7,1.31,1.07a15.59,15.59,0,0,0,1.47,1.22c.63.44,1.37.72,2,1.11s1.23.85,1.89,1.18,1.41.64,2.13.91a11.13,11.13,0,0,0,2.42.53,9.93,9.93,0,0,1,1.68.53,11.17,11.17,0,0,0,1.89.49c.76.15,1.52.3,2.29.39s1.41.12,2.11.18,1.28.18,1.94.22,1.4.06,2.11.06c1.37,0,2.73,0,4.1,0a15.41,15.41,0,0,0,1.8-.14l1.12-.14c.71-.07,1.42-.12,2.12-.22.53-.08,1-.22,1.56-.34s1-.15,1.47-.25,1-.23,1.43-.35,1-.24,1.56-.41a11.15,11.15,0,0,0,1.66-.73,19.41,19.41,0,0,0,2.94-1.82,8.39,8.39,0,0,0,1.12-1.11A13.18,13.18,0,0,0,74,333.05c.56-.85,1-1.74,1.51-2.61s.86-1.77,1.38-2.61a12.64,12.64,0,0,0,1.44-3c.38-1.3.63-2.64.88-4a1.52,1.52,0,0,0,0-.21,7.68,7.68,0,0,1,.83,0l.25.06a3.53,3.53,0,0,0,1,.11h2c1.45,0,2.9,0,4.35.06.68,0,1.35.09,2,.14s1.56.06,2.34.1,1.34.08,2,.12,1.47,0,2.2.06a22.4,22.4,0,0,1,2.59.19l1.51.24-.39-.06c2,.34,4,.73,6,1a11.12,11.12,0,0,1,2.18.51,17.37,17.37,0,0,0,2.15.69,31.12,31.12,0,0,1,4.67,1c.22.12.43.25.64.39a14.91,14.91,0,0,1,1.64,1.73l.18.3v.09a2.76,2.76,0,0,1-.08.27c0,.05,0,.1-.08.14a6.14,6.14,0,0,1-.47.42,8.35,8.35,0,0,1-1.23.71,13.36,13.36,0,0,1-2.51.54l-2.75.34.4,0c-.8.08-1.59.18-2.38.33s-1.37.28-2.06.44-1.34.29-2,.47a12.48,12.48,0,0,0-1.22.41,5.06,5.06,0,0,0-1.41.9,4.74,4.74,0,0,0-1.34,2.24,4.61,4.61,0,0,0,.37,3.2,4.49,4.49,0,0,0,1.77,1.92,11.88,11.88,0,0,0,2.21,1,1.5,1.5,0,0,0,1.86-1,1.44,1.44,0,0,0-.13-1.15,1.59,1.59,0,0,0-.88-.71l-.87-.34a6.12,6.12,0,0,1-.83-.47c-.12-.11-.23-.22-.34-.34s-.12-.24-.17-.36a3.12,3.12,0,0,1-.14-.5,2.43,2.43,0,0,1,0-.27,3.09,3.09,0,0,1,.14-.43,3.38,3.38,0,0,1,.24-.41,4,4,0,0,1,.29-.29,5,5,0,0,1,.51-.27,26.68,26.68,0,0,1,2.93-.73c1.06-.24,2.12-.46,3.2-.6.76-.09,1.52-.17,2.28-.27s1.43-.17,2.14-.32a9.87,9.87,0,0,0,2.17-.66,8.35,8.35,0,0,0,2-1.28,4.07,4.07,0,0,0,1.4-2.83,3.22,3.22,0,0,0-.52-1.83l-.17-.25-.13-.17c-.16-.21-.34-.4-.5-.6a12.87,12.87,0,0,0-1.36-1.4,6.25,6.25,0,0,0-2.11-1.24c-1.55-.56-3.23-.61-4.81-1a21.16,21.16,0,0,1-2.08-.7,7.09,7.09,0,0,0-1-.25c-.54-.11-1.08-.19-1.62-.28l.38.06-3.23-.55c-1-.18-2-.37-3-.53-.81-.13-1.61-.27-2.43-.33s-1.49-.07-2.24-.09-1.38,0-2.07-.08-1.41-.09-2.12-.11-1.5-.06-2.25-.12-1.38-.1-2.07-.12c-1.45,0-2.89,0-4.34,0H81.11a9.83,9.83,0,0,0-1.21-.19h-.22c0-.39.09-.77.15-1.16.17-1.11.25-2.22.35-3.34l.59-.05a10.88,10.88,0,0,0,2-.43c.71-.24,1.41-.55,2.1-.86a11.28,11.28,0,0,0,3.55-2.45,16.25,16.25,0,0,0,1.52-2c.37-.52.75-1,1.09-1.58a15.81,15.81,0,0,0,1-1.87,22,22,0,0,0,.91-2.19,8.92,8.92,0,0,0,.34-2.4c0-.75,0-1.5,0-2.25s0-1.43,0-2.15a11.79,11.79,0,0,0-.28-2.36,14.27,14.27,0,0,0-.69-2.31l.06.14-.08-.21c0-.05-.05-.11-.07-.17l0,.08c-.55-1.36-1.21-2.67-1.81-4-.26-.58-.53-1.13-.83-1.68a12,12,0,0,0-1-1.48l-.85-1.11a11.78,11.78,0,0,0-1.51-1.72,20.12,20.12,0,0,1-1.48-1.44c-.32-.34-.64-.67-1-1a5.57,5.57,0,0,1-.46-.51l-.28-.33c0-.06,0-.12,0-.18a9.48,9.48,0,0,1,0-1.07c0-.18,0-.36,0-.54a3.76,3.76,0,0,0-.1-.75c0-.32,0-.63,0-.95a3.22,3.22,0,0,0-.16-1,6.52,6.52,0,0,0-.29-.73c-.06-.13-.16-.24-.22-.36l0,.08a1.65,1.65,0,0,0-.22-.36c0-.33-.1-.66-.17-1a11,11,0,0,0-.62-1.83,12.86,12.86,0,0,0-.64-1.42,6.41,6.41,0,0,0-1.34-1.56,13,13,0,0,0-1.6-1.26c-.45-.3-.93-.56-1.38-.86-.29-.2-.57-.4-.86-.58a5.85,5.85,0,0,0-1.35-.6c-.45-.14-.93-.24-1.4-.34L71,261.21c-1.15-.24-2.29-.48-3.46-.62-.94-.12-1.88-.2-2.82-.33-.7-.12-1.39-.29-2.09-.39a17.44,17.44,0,0,0-2.16-.16c-.72,0-1.42,0-2.13-.07s-1.4-.06-2.1-.07l-2.1,0c-.83,0-1.67,0-2.5.05-1.44.07-2.89.12-4.33.23-.72.05-1.45.06-2.18.11l-2.43.18a39,39,0,0,0-4.18.61c-.65.12-1.3.23-1.94.36s-1.24.3-1.86.48l-1.91.58c-.63.18-1.27.34-1.89.56a27.88,27.88,0,0,0-3.71,1.85c-.62.32-1.25.63-1.86,1A11.83,11.83,0,0,0,23.32,267a10.09,10.09,0,0,0-1.59,1.86,9.27,9.27,0,0,0-1,2.12,10.17,10.17,0,0,0-.54,2.43,5.1,5.1,0,0,0,.14,1.45c0,.49,0,1,0,1.47s0,1.05,0,1.57.12,1.21.19,1.8l0-.23c0,.27.07.54.1.8.07.71.07,1.42.09,2.13s.09,1.67.16,2.49.05,1.59.1,2.39.13,1.57.23,2.35.11,1.38.17,2.08.13,1.29.21,1.93c.09,1.05.08,2.11.19,3.15.13,1.21.35,2.41.51,3.61s.09,2.2.13,3.31.18,2.21.26,3.31.06,2.41.18,3.61.15,2.62.3,3.92c0-.13,0-.27,0-.4.05.5.1,1,.16,1.51v0c.05.38.09.75.13,1.13.07.69.12,1.39.19,2.08,0,.11,0,.22.05.33-.27,0-.54,0-.81,0-.66.05-1.31.07-2,.17a7.29,7.29,0,0,0-1.94.55c-.54.23-1.06.49-1.6.71s-.91.34-1.36.51-1.17.49-1.75.73c-1.31.49-2.67.82-4,1.26a11,11,0,0,0-2.34,1.08c-.74.45-1.43,1-2.12,1.5a24.66,24.66,0,0,0-2,1.56,12.09,12.09,0,0,0-1.41,1.54,11.93,11.93,0,0,0-1.84,3.58A9.49,9.49,0,0,0,0,334.65a5.2,5.2,0,0,0,.43,2.55,8.62,8.62,0,0,0,1.22,1.93,11.74,11.74,0,0,0,1.38,1.44,15.09,15.09,0,0,0,1.62,1.24,9.6,9.6,0,0,0,1.9.94,37.37,37.37,0,0,0,4,1.21c.68.18,1.37.34,2.06.51s1.23.34,1.85.49c1.28.33,2.53.75,3.81,1.09.91.23,1.83.44,2.73.72.75.23,1.5.51,2.24.8a7.34,7.34,0,0,1,1.15.67,6.42,6.42,0,0,1,.83.9,8.1,8.1,0,0,1,.77,1.38,13.56,13.56,0,0,1,.44,1.41c.12.5.23,1,.37,1.51a11.19,11.19,0,0,0,.7,1.8,6.91,6.91,0,0,0,1.1,1.53,13.45,13.45,0,0,0,2.53,1.91c.83.53,1.64,1.09,2.42,1.69.54.44,1.06.9,1.63,1.3a11.52,11.52,0,0,0,2.2,1.15,26.92,26.92,0,0,0,4.3,1.29,31.31,31.31,0,0,0,4.81.78l2.28.2c.74.05,1.48.08,2.23.1l2.17,0c.73,0,1.45-.07,2.18-.1a41,41,0,0,0,4.68-.49,23.8,23.8,0,0,0,4-1.12c1.46-.54,2.94-1,4.38-1.63,1.78-.77,3.39-1.89,5.17-2.64a11.36,11.36,0,0,1,2.56-.61l1.41-.15-.39,0a37.13,37.13,0,0,1,9.42.12c2.79.46,5.53,1.13,8.32,1.52l-.27,0,1.14.18,2.07.37a20.43,20.43,0,0,0,2.48.26c1.44.06,2.88.06,4.32.05a26.63,26.63,0,0,0,4.36-.53c1.39-.23,2.75-.57,4.12-.88q1-.24,2-.51a20.27,20.27,0,0,0,2.26-.81c1.21-.44,2.44-.77,3.68-1.11a21.33,21.33,0,0,1,2.1-.49c.66-.11,1.31-.31,2-.43h.27a1.5,1.5,0,0,0,.07-3ZM48.47,280.88a1.59,1.59,0,0,0-.3-.46c.29,0,.59,0,.89.05l-.16.08A1.16,1.16,0,0,0,48.47,280.88Zm10.33-3.95a1.54,1.54,0,0,0,.08.19l-.07.05a1.61,1.61,0,0,0-.37.32c-.44,0-.88,0-1.32.05l-.25,0a1.21,1.21,0,0,0-.18-.38,8.85,8.85,0,0,1,1.05-.19C58.09,277,58.44,276.94,58.8,276.93Zm-6,.12-.15,0-1.23.09a7.43,7.43,0,0,1-1.56-.09,14.56,14.56,0,0,0,2.29-.49l.6-.19A1.58,1.58,0,0,0,52.8,277.05Zm-14.52,3.69a2.07,2.07,0,0,0,0,.35c-.21,0-.42,0-.63-.06s-.59-.12-.89-.18C37.25,280.8,37.76,280.76,38.28,280.74Zm24.56-.46a1.47,1.47,0,0,0,.66.17h.08a.67.67,0,0,0-.19.05l-.67.19A1.55,1.55,0,0,0,62.84,280.28Zm7.22-1.52.36,0,.23.1.19.07-.29.05c-.33.05-.65.12-1,.2A1.29,1.29,0,0,0,70.06,278.76Zm19.5,12.58v0h0Zm0,0v0l0-.09S89.54,291.29,89.55,291.33Zm-3.4-6.81,0,.07-.2-.26Zm-2.1-2.44a9.94,9.94,0,0,1,1.35,1.47l.81,1.05a15.85,15.85,0,0,1,1.61,2.94c.56,1.25,1.19,2.45,1.7,3.72l0,.09a13.41,13.41,0,0,1,.69,2.86c.08,1,0,2,0,3a28.92,28.92,0,0,1-.13,3.09,8,8,0,0,1-.58,1.71,16.8,16.8,0,0,1-1.28,2.45c-.54.82-1.11,1.63-1.7,2.42a10.36,10.36,0,0,1-1.42,1.31,14.35,14.35,0,0,1-2.73,1.4,10.12,10.12,0,0,1-1.89.5c.08-.62.14-1.23.23-1.85l.09-.58c.23-1.31.55-2.6.65-3.94s.32-2.8.46-4.2.37-2.76.43-4.14c0-.67.11-1.33.17-2s.07-1.49.16-2.23a21.08,21.08,0,0,0,.16-2.24c0-.71.1-1.43.12-2.14,0-1.39,0-2.78,0-4.17v-1.45C83.36,281.45,83.69,281.77,84.05,282.08Zm-60.18-10.9a6.77,6.77,0,0,1,.65-1.1,10.21,10.21,0,0,1,1.36-1.35,28.73,28.73,0,0,1,2.88-1.58c.93-.5,1.82-1.06,2.78-1.48.79-.29,1.62-.49,2.43-.73s1.83-.58,2.76-.81,1.86-.36,2.78-.53,1.82-.33,2.73-.44c1.42-.14,2.85-.23,4.27-.29s2.87-.19,4.31-.24c.77,0,1.53-.08,2.3-.08h2.3c.7,0,1.4,0,2.09.05s1.38.07,2.07.08a26.5,26.5,0,0,1,2.82.15c.94.17,1.87.39,2.81.49s1.79.18,2.69.31,2.06.39,3.09.61a16.87,16.87,0,0,1,2.63.66,15,15,0,0,1,1.36.88c.53.35,1.09.65,1.6,1a10.39,10.39,0,0,1,1.28,1.2,8.66,8.66,0,0,1,.76,1.56,8.84,8.84,0,0,1,.39,1.36c.1.52.17,1,.24,1.56,0,.24,0,.47,0,.71a4.15,4.15,0,0,0-1.61,0,9.54,9.54,0,0,0-1.39.29,15,15,0,0,1-1.77.35,16.88,16.88,0,0,1-3.76,0,31.87,31.87,0,0,1-3.56-1.11,20.77,20.77,0,0,0-4.26-.86,16.31,16.31,0,0,0-1.71-.08,19.16,19.16,0,0,0-2.52.17,16.23,16.23,0,0,0-1.83.3l-1.93.43c-1,.24-2.05.54-3.07.87-.46.15-.92.29-1.4.4a15,15,0,0,1-1.65.28,17.4,17.4,0,0,1-4.08,0l-.55-.09.15,0a25.74,25.74,0,0,0-4.28-.49c-.64,0-1.27,0-1.9,0a9.84,9.84,0,0,0-2.29.29,15.86,15.86,0,0,1-1.93.44,17.8,17.8,0,0,0-1.91.35c-.56.15-1.12.28-1.66.47s-1.26.53-1.88.81q-.6.21-1.2.39c-.5.16-1,.32-1.5.46a1.57,1.57,0,0,0-.42.18c-.17-.1-.34-.19-.5-.3a6.21,6.21,0,0,1-.75-.79,7.88,7.88,0,0,1-.63-1.14c-.07-.2-.12-.41-.17-.61s0-.55,0-.83c0-.1,0-.21,0-.31A10.45,10.45,0,0,1,23.87,271.18Zm-.34,8.31c.1.06.18.14.28.2A16.24,16.24,0,0,0,26,280.75c.66.27,1.34.52,2,.73l2,.57c.66.19,1.3.42,1.94.66s1.16.41,1.75.56,1.37.3,2.06.44a24.26,24.26,0,0,0,4.33.51l2.06,0c.65,0,1.31.07,2,.12,1.32.12,2.65.13,4,.14h2.08a17.9,17.9,0,0,0,1.94-.15c1.31-.12,2.64-.11,3.95-.11h2.3a21.08,21.08,0,0,0,2.25-.16c.64-.07,1.3-.15,1.93-.26a17.34,17.34,0,0,0,1.88-.5,17.22,17.22,0,0,1,2.13-.36c.67-.12,1.3-.36,2-.48.26,0,.53-.06.8-.12s.52-.13.78-.2.5-.14.76-.19.57-.07.86-.12a7,7,0,0,0,1.42-.41l1.2-.45.38-.15c.27-.1.54-.18.79-.3s.31-.2.47-.29a8.93,8.93,0,0,1,.89-.4l.5-.2,0,0a4.83,4.83,0,0,0,.56-.27,4,4,0,0,0,.58-.41l.44-.26a8,8,0,0,0,.77-.52l-.21.16.39-.29.33-.28c0,.12,0,.24,0,.37,0,.36,0,.71,0,1.07s-.1.89-.1,1.34v1.89c0,1.39,0,2.79,0,4.17,0,.72-.1,1.43-.12,2.14s-.07,1.5-.16,2.25-.09,1.31-.14,2-.11,1-.16,1.56-.05,1.25-.11,1.88-.16,1.19-.23,1.78c-.14,1.07-.21,2.15-.36,3.23s-.21,2.25-.36,3.37c-.1.53-.21,1.05-.32,1.57-.14.67-.22,1.35-.31,2s-.17,1.17-.24,1.76h-.26a23.46,23.46,0,0,1-3.14-.25c-.77-.14-1.53-.29-2.31-.41l.39.06-.76-.11a21.63,21.63,0,0,1-3.93-1.09c-.61-.22-1.22-.46-1.83-.69s-1.22-.44-1.81-.69c-.79-.36-1.58-.75-2.38-1.1-1-.45-2-.92-2.94-1.46s-1.76-1-2.66-1.45a16.61,16.61,0,0,1-2.38-1.48c-.45-.36-.9-.73-1.38-1.06s-1-.63-1.51-.93A24.76,24.76,0,0,1,48,297.91c-.75-.64-1.48-1.31-2.27-1.91a13,13,0,0,0-1.14-.8c-.42-.27-.86-.51-1.26-.79s-.73-.56-1.09-.84-.64-.45-1-.66c-.61-.42-1.25-.79-1.84-1.24s-1.16-1.05-1.77-1.53a20.14,20.14,0,0,0-2.15-1.5c-.57-.35-1.16-.65-1.71-1s-.86-.61-1.27-.93-.75-.7-1.12-1a19.06,19.06,0,0,0-1.54-1.18q-.67-.56-1.38-1.08a1.41,1.41,0,0,0-1.13-.17,1.49,1.49,0,0,0-.93.68,1.56,1.56,0,0,0-.17,1.14A1.67,1.67,0,0,0,27,286l.68.53.71.57.64.44c.41.35.79.72,1.18,1.09s1.15.88,1.72,1.33a19.55,19.55,0,0,0,1.8,1.14,21.31,21.31,0,0,1,2,1.35c.69.58,1.34,1.21,2,1.76s1.33.9,2,1.35,1.32,1,2,1.47c.38.26.78.48,1.17.73s.79.53,1.17.81a38.85,38.85,0,0,0,3.17,2.55c1.2.77,2.5,1.39,3.65,2.24.53.43,1.06.86,1.61,1.25a16,16,0,0,0,1.7,1l1.76.92c.62.33,1.2.7,1.82,1,1.24.64,2.53,1.17,3.79,1.77.66.32,1.31.62,2,.89s1.29.47,1.92.71c.88.33,1.75.66,2.64.95a21.63,21.63,0,0,0,3.1.66l-.15,0,.34.06h0l.36.06c.74.13,1.48.28,2.23.39s1.4.17,2.11.21l1,0c-.19,1.95-.39,3.9-.66,5.84-.17,1-.38,2-.59,3a16.73,16.73,0,0,1-.78,2.79c-.28.58-.64,1.11-1,1.67s-.69,1.31-1,2-.74,1.38-1.13,2.06A18.92,18.92,0,0,1,71,332.15a9.23,9.23,0,0,1-1.2,1.22c-.54.37-1.1.69-1.67,1a14.9,14.9,0,0,1-1.54.79c-.5.17-1,.29-1.51.41s-1.07.29-1.61.39-1.07.16-1.6.29a16.64,16.64,0,0,1-1.71.33c-.8.08-1.6.16-2.39.26l.4,0-.67.07a26.57,26.57,0,0,1-2.68.08h-3a22.1,22.1,0,0,1-2.94-.18c-1.05-.15-2.11-.17-3.15-.31l-1.25-.24a12.41,12.41,0,0,1-1.6-.38c-.48-.16-.94-.38-1.43-.52a10.74,10.74,0,0,0-1.68-.29,12.72,12.72,0,0,1-2.56-.89,23.69,23.69,0,0,1-2-1.25c-.72-.43-1.49-.73-2.17-1.21-.27-.22-.52-.46-.79-.69s-.67-.55-1-.83a12.19,12.19,0,0,1-1.88-1.78,11.63,11.63,0,0,1-1.15-2.11,17.29,17.29,0,0,1-.73-2.35c-.21-1-.41-2-.53-3,0,0,0,.08,0,.12-.08-.64-.18-1.28-.26-1.92-.11-1.14-.21-2.28-.34-3.42,0,0,0,.08,0,.12v-.14l0-.26a1.94,1.94,0,0,1,0,.24c0-.32-.06-.65-.1-1s-.09-.86-.14-1.29c0,.13,0,.27,0,.4-.07-.71-.09-1.42-.13-2.14s-.12-1.36-.16-2-.05-1.43-.08-2.15-.13-1.42-.19-2.13c-.12-1.29-.11-2.59-.16-3.9,0-.83-.14-1.66-.25-2.48s-.23-1.41-.32-2.13c0,0,0-.05,0-.07-.07-.69-.1-1.37-.12-2.06s-.11-1.44-.2-2.16c-.13-1.34-.23-2.7-.39-4-.07-.7-.11-1.39-.12-2.09s-.09-1.58-.14-2.38-.09-1.6-.11-2.4A20,20,0,0,0,23.53,279.49ZM5.76,325.69h0l-.14.11Z"></path> <path d="M151.33,347.75a1.47,1.47,0,0,0-.36,0c-.82.21-1.63.48-2.44.76a1.58,1.58,0,0,0-.92.68,1.45,1.45,0,0,0-.17,1.13,1.5,1.5,0,0,0,1.82,1.1c.8-.28,1.61-.55,2.44-.76a1.5,1.5,0,0,0-.37-2.95Z"></path> <path d="M126,341.8h.1l.3,0Z"></path> <path d="M388.36,334.13a8.62,8.62,0,0,0-.55-1.72,14.71,14.71,0,0,0-1.23-2.28,18.07,18.07,0,0,0-1.18-1.55,6.49,6.49,0,0,0-.94-.95,11.86,11.86,0,0,0-1.42-1c-.34-.22-.69-.43-1-.68l-.68-.54.06.06c-.38-.3-.77-.57-1.15-.86a10.77,10.77,0,0,0-1.08-.8,7,7,0,0,0-1.21-.56c-.35-.16-.69-.33-1-.48l.35.16c-.29-.14-.58-.29-.88-.4s-.46-.13-.68-.19-.45-.11-.67-.19a6.62,6.62,0,0,1-.62-.24c-.33-.14-.67-.28-1-.39s-.8-.18-1.19-.31-.73-.28-1.1-.41a8.31,8.31,0,0,0-1.29-.3c.3-.61.59-1.24.86-1.86l.08-.17a1.6,1.6,0,0,0,.15-.35v0a12,12,0,0,0,.58-1.65A17.24,17.24,0,0,0,372,314a30.44,30.44,0,0,0,.1-4.48,31.81,31.81,0,0,0-1.53-9.33c-.52-1.56-1.06-3.12-1.69-4.64a13.23,13.23,0,0,0-2.44-3.66,39.54,39.54,0,0,0-3.12-3.09c-.49-.42-.95-.87-1.42-1.3L360.3,286c-.57-.52-1.13-1.06-1.74-1.53a13.29,13.29,0,0,0-1.74-1.13,20.06,20.06,0,0,0-2.11-1c-.66-.27-1.32-.51-2-.75-1.44-.5-2.92-.85-4.38-1.25a22.2,22.2,0,0,0-4.4-1.05l-.58,0a16.36,16.36,0,0,0-2.61.25q-1.54.24-3.06.63a16.8,16.8,0,0,0-3,1,16,16,0,0,0-2.57,1.64c-.74.56-1.46,1.14-2.17,1.73-1.66-.83-3.39-1.54-5.07-2.33-1.18-.55-2.34-1.15-3.46-1.81s-2.12-1.23-3.2-1.8l-.56-.3c.33-.85.63-1.71.89-2.58a30.48,30.48,0,0,0,.86-3.9c.2-1.22.4-2.44.59-3.66l-.06.38c.22-1.38.42-2.76.58-4.15.07-.66.11-1.33.15-2s.1-1.42.15-2.13c.09-1.43.17-2.87.12-4.31s-.14-2.64-.27-3.95-.29-2.59-.53-3.87-.64-2.62-1-3.91-.64-2.5-1-3.76-.69-2.57-1.1-3.83-.91-2.65-1.34-4-.86-2.79-1.35-4.17c-.95-2.68-2.24-5.23-3.41-7.82-.57-1.27-1.19-2.51-1.85-3.73s-1.44-2.61-2.06-4c-.55-1.19-1.06-2.39-1.62-3.58-.31-.68-.61-1.35-1-2l-.52-1c.31-.75.55-1.52.8-2.29s.53-1.73.73-2.61a20.76,20.76,0,0,0,.32-3.34c.06-1,.16-1.91.19-2.87,0-.52,0-1-.06-1.54s-.07-1.17-.08-1.76c0-.93,0-1.87-.09-2.8s-.12-2-.22-3-.2-2.21-.38-3.32c-.16-.94-.3-1.89-.46-2.83s-.32-1.89-.55-2.81c-.28-1.09-.62-2.16-1-3.22S302.38,172,302,171c-.29-.89-.6-1.79-.89-2.69a31.45,31.45,0,0,0-2.41-5.85l-.64-1.16v0a1.25,1.25,0,0,0-.43-.73l-.17-.31c-.41-.75-.84-1.49-1.24-2.24-.21-.39-.42-.77-.62-1.17s-.43-1-.63-1.48c-.4-.93-.8-1.86-1.23-2.78-.91-1.9-2-3.72-2.86-5.63-.46-1-.89-2-1.42-2.94s-1-1.62-1.49-2.41-1.05-1.63-1.58-2.43a25.63,25.63,0,0,1-1.38-2.37c-.87-1.7-1.68-3.43-2.64-5.09-.57-1-1.2-1.93-1.81-2.89s-1.4-2.1-2.16-3.11-1.58-2-2.38-2.94-1.57-1.75-2.3-2.67c-.36-.5-.73-1-1.13-1.46s-.71-.79-1.08-1.17c-.82-.87-1.66-1.73-2.46-2.62a24.94,24.94,0,0,0-2.84-2.59c-.87-.74-1.79-1.4-2.69-2.1-.21-.17-.43-.35-.65-.51s-.48-.38-.73-.55a5,5,0,0,0-1-.52c-.24-.09-.46-.19-.71-.26a4.13,4.13,0,0,0-.7-.14c-.24,0-.48-.13-.72-.18a9.41,9.41,0,0,0-1.05-.13l-.69,0h-.59l-.16,0-.37-1c-.87-2.39-1.76-4.76-2.73-7.12v0c-.5-1.24-1-2.48-1.53-3.7s-1.14-2.54-1.67-3.84-1.08-2.88-1.57-4.34c-.27-.79-.54-1.59-.83-2.37s-.66-1.64-1-2.45c-1-2.6-1.75-5.29-2.68-7.91-.4-1.13-.89-2.24-1.28-3.39s-.78-2.37-1.16-3.56c-.75-2.33-1.52-4.68-2.12-7.06-.3-1.23-.57-2.48-.87-3.72s-.63-2.66-.93-4c-.35-1.65-.74-3.29-1.12-4.93-.42-1.83-.84-3.66-1.32-5.48-.23-.88-.41-1.78-.6-2.66s-.38-1.79-.56-2.68c-.34-1.64-.6-3.29-.8-5l-.21-1.81c-.13-1.29-.18-2.58-.2-3.88s-.13-2.75-.18-4.13-.16-2.73-.21-4.11-.07-2.48-.08-3.72,0-2.71,0-4.06c0-.45,0-.9,0-1.34s.09-.88.12-1.31a10,10,0,0,0,0-1.22,13.46,13.46,0,0,0-.14-1.41A11.31,11.31,0,0,0,232.19,4,5.26,5.26,0,0,0,229.71.77a6.87,6.87,0,0,0-1.11-.5A7.46,7.46,0,0,0,227,0a3,3,0,0,0-.42,0,9.36,9.36,0,0,0-1.29.11,16.94,16.94,0,0,0-1.73.31,28.19,28.19,0,0,0-6.09,2.47c-1.08.53-2.16,1.06-3.22,1.62-.62.33-1.24.63-1.85,1s-1.2.72-1.79,1.1a40.59,40.59,0,0,0-3.24,2.46c-2.25,1.61-4.66,3-6.93,4.55a42.54,42.54,0,0,0-3.56,2.87c-1,.9-2.08,1.79-3.15,2.65s-2.3,1.75-3.42,2.67-2.18,1.95-3.24,3c-2.16,2.07-4.3,4.16-6.37,6.32-1,1.09-2,2.23-3,3.37s-1.87,2.27-2.89,3.34-2.15,2.18-3.21,3.29-1.94,2.14-2.9,3.22-2,2.24-3,3.34c-.72.8-1.49,1.56-2.24,2.34h-.92a4.32,4.32,0,0,0-1.3.1,10.17,10.17,0,0,0-1.83,0c-1.63.13-3.25.35-4.86.61-1.44.23-2.86.53-4.28.89s-2.87.68-4.3,1.05c-.72.18-1.44.36-2.16.58a19.66,19.66,0,0,0-2.36.88c-1.39.61-2.71,1.36-4.05,2.07l-2.18,1.15a16,16,0,0,0-1.91,1.14c-.73.52-1.44,1.06-2.13,1.64s-1.12,1-1.68,1.49c-1.21,1.08-2.42,2.17-3.59,3.3q-.83.81-1.59,1.65a25.05,25.05,0,0,0-1.62,1.93c-.94,1.26-1.82,2.57-2.7,3.88a41,41,0,0,0-2.31,4c-.75,1.44-1.5,2.87-2.18,4.33a35.6,35.6,0,0,0-1.75,4.64,37.37,37.37,0,0,0-1.7,9.38c-.06,1.55-.09,3.1-.1,4.66,0,.79,0,1.59,0,2.38s.13,1.76.25,2.63.24,1.56.36,2.33.23,1.42.38,2.12.35,1.54.57,2.3.49,1.54.74,2.31c.49,1.46,1,2.89,1.67,4.3-.86,1.36-1.75,2.7-2.73,4-.63.77-1.25,1.55-1.84,2.34-.24.32-.45.67-.67,1l-.47-.48a46.19,46.19,0,0,0-5.7-5.12h0l0,0-.27-.21.17.13c-.65-.53-1.28-1.08-1.91-1.63a19.64,19.64,0,0,1-1.94-1.93c-.57-.65-1.09-1.34-1.65-2A25.06,25.06,0,0,0,97.21,112c-.3-.31-.61-.6-.92-.89l0-.1a7.32,7.32,0,0,0,.11-.8,3.26,3.26,0,0,0-.49-2,4.34,4.34,0,0,0-.85-1,6,6,0,0,0-1.11-.78,4.43,4.43,0,0,0-.45-.2,13.13,13.13,0,0,0,.65-1.3c.6-1.46-.64-2.88-1.91-3.45a3.74,3.74,0,0,0-.85-.3,8.84,8.84,0,0,0-1.14-.13c-.62,0-1.21-.13-1.82-.13h-.2a6.82,6.82,0,0,0-.79.08,3,3,0,0,0-.6-2.64,2.28,2.28,0,0,0-1.74-.72,4.5,4.5,0,0,0-1.92.51L82,97.08a52.51,52.51,0,0,1-4-4.34c-.54-.59-1-1.21-1.58-1.8a15.37,15.37,0,0,0-1.68-1.44l0,0-.1-.08,0,0c-.37-.29-.74-.56-1.13-.82L73,88.23a3.9,3.9,0,0,0-.74-.42l-.31-.12-.09-.06a1.8,1.8,0,0,0-.34-.17,2.12,2.12,0,0,0-.5-.25,3.18,3.18,0,0,1-.38-.11L70,86.81a4.27,4.27,0,0,0-1.16-.28,1.62,1.62,0,0,0-.31,0,6.69,6.69,0,0,0-.9.08,3.4,3.4,0,0,0-1,.28A2.41,2.41,0,0,0,65,89.13c0,.16,0,.31.06.46a7.65,7.65,0,0,0,.09,2.24c.06.24.17.47.24.7a4.71,4.71,0,0,0,.51,1.12c.24.37.44.75.64,1.13s.6,1,.9,1.47a11,11,0,0,0,1.48,1.86c.53.56,1.06,1.1,1.55,1.7s1.17,1.42,1.79,2.09,1.45,1.57,2.18,2.34c.28.29.55.59.82.88-.25.36-.49.74-.71,1.13-.36.63-.66,1.29-1,1.94-.67,1.36-1.49,2.65-2.16,4a36,36,0,0,0-1.71,4.23,12.22,12.22,0,0,0-.62,2.45,10.4,10.4,0,0,0,0,2.16c.08.86.18,1.72.32,2.57a14.63,14.63,0,0,0,.52,2.29,15.31,15.31,0,0,0,1,2.38c.37.66.78,1.3,1.18,1.94a37,37,0,0,0,2.77,3.92c.51.63,1,1.25,1.6,1.85a14.83,14.83,0,0,0,2,1.66A29.49,29.49,0,0,0,82.3,140a31,31,0,0,0,4.48,2.11c.71.25,1.44.47,2.15.71s1.43.49,2.17.7a17.76,17.76,0,0,0,5.23.67,18,18,0,0,0,2.74-.22c0,.13-.11.25-.16.37l.09-.21c-.37.83-.7,1.68-1,2.52s-.8,1.62-1.24,2.41-1,1.65-1.47,2.47c-1.11,1.82-2,3.75-2.95,5.66-.85,1.73-1.72,3.45-2.56,5.18-.9,1.89-1.54,3.87-2.32,5.8-.27.68-.54,1.34-.83,2-.74,1.69-1.54,3.35-2.23,5.06s-1.37,3.31-2,5c-.34.9-.69,1.79-1,2.71s-.48,1.6-.69,2.41a46.61,46.61,0,0,0-1,5,45.63,45.63,0,0,0-.64,5.82,29.56,29.56,0,0,0,.1,3.12,18.43,18.43,0,0,0,.46,3.14,14.63,14.63,0,0,0,1.24,3.11A10.67,10.67,0,0,0,82.7,208c.71.73,1.48,1.39,2.26,2.05l.73.64c-.18,1.38-.37,2.76-.55,4.14s-.35,2.64-.52,4-.22,2.54-.3,3.82-.17,2.76-.2,4.14-.05,2.84-.06,4.26v3.89c0,1.39,0,2.78,0,4.17a48.81,48.81,0,0,0,.88,7.71,46.85,46.85,0,0,0,1.84,8.29c.49,1.28,1,2.54,1.58,3.81s1,2.45,1.63,3.63,1.18,2.28,1.77,3.41c.28.53.55,1.07.86,1.58a11.32,11.32,0,0,0,1.28,1.78,10.55,10.55,0,0,0,1.57,1.42c.54.42,1.09.82,1.65,1.21,1.07.73,2.15,1.44,3.26,2.1s2.07,1.22,3.12,1.8c.87.47,1.79.88,2.7,1.27a1.11,1.11,0,0,0,.27.12l.7.3a34.27,34.27,0,0,0,3.36,1.3,26.64,26.64,0,0,0,3.86.88,30.07,30.07,0,0,0,3.8.27l1.77,0a12.75,12.75,0,0,0,2.3-.19c1.16-.18,2.29-.48,3.44-.68a21.81,21.81,0,0,0,4.15-1c1.12-.43,2.19-1,3.3-1.47l2.82-1.18c.9-.34,1.82-.64,2.71-1a11.91,11.91,0,0,0,2.15-1.27c.63-.45,1.31-.83,1.94-1.3.78-.57,1.52-1.18,2.28-1.76s1.44-1,2.16-1.54,1.58-1.25,2.38-1.87c.6-.43,1.24-.82,1.81-1.27s1.23-1.06,1.85-1.57a15.75,15.75,0,0,1,2.26-1.2c.8-.39,1.55-.85,2.36-1.25s1.6-.73,2.37-1.16,1.47-.9,2.27-1.27,1.43-.45,2.14-.7,1.59-.57,2.38-.85a14.7,14.7,0,0,1,2.44-.59c.84-.15,1.69-.28,2.54-.39l-.4.05,2.64-.29-.4,0c1.13-.11,2.26-.15,3.39-.16a7.3,7.3,0,0,1,1.14.09c.34,0,.7.05,1,.09l.4.07c.39.06.76.09,1.15.14l1,.15c.35.05.69.06,1,.1l.6.1c.5.1,1,.25,1.48.37a6.4,6.4,0,0,1,.62.2,5.11,5.11,0,0,0,1,.2l.26.09.31.07.13.06.36.19a.92.92,0,0,0,.24.13l1.77.92c1.73.89,3.5,1.68,5.27,2.48s3.43,1.77,5.18,2.6,3.74,1.71,5.63,2.52a44.29,44.29,0,0,1,4,2.13,47.92,47.92,0,0,0,4.34,2.22c.59.27,1.16.57,1.73.88s1.09.7,1.65,1a15.28,15.28,0,0,0,2,1l1.93.79,1.59.71-.35-.16c1,.45,2,.94,3,1.37s2.2.93,3.29,1.41h0c1.13.5,2.24,1,3.37,1.51l2.31,1-.25-.11c1.09.48,2.18.93,3.28,1.38s2.4.84,3.6,1.26c2,.69,4,1.57,6,2.28,1.16.42,2.36.72,3.56,1a33.17,33.17,0,0,1,3.53,1c1,.37,1.95.79,2.94,1.14,1.19.44,2.41.82,3.63,1.18s2.21.71,3.29,1.1,2.13.71,3.21,1,2.39.76,3.6,1.08,2.57.48,3.85.73q4.14.81,8.33,1.23c1.34.14,2.69.17,4,.18a32.8,32.8,0,0,0,3.84-.17,36.7,36.7,0,0,0,5.52-.79,38.75,38.75,0,0,0,4.88-1.62l.12-.05.12-.05a33.41,33.41,0,0,0,3.12-1.4c1.08-.57,2.14-1.2,3.21-1.81a26.32,26.32,0,0,0,2.84-1.88l.47.26c1,.53,2.08,1,3.14,1.46l-.35-.15c1.48.68,2.94,1.4,4.36,2.2,1.25.71,2.37,1.64,3.67,2.27.2.1.41.18.62.27a12.72,12.72,0,0,0-1.1,3.43,16.49,16.49,0,0,0-.24,2.81c0,.83,0,1.66,0,2.49s0,1.62.11,2.42.19,1.39.32,2.08l-.18.11a9.72,9.72,0,0,1-.92.44c-.6.29-1.16.64-1.74,1-1.2.66-2.44,1.26-3.7,1.8a8.27,8.27,0,0,1-1.48.39l-1.71.24a12.62,12.62,0,0,0-1.73.35c-.55.15-1.07.35-1.61.52s-1.09.37-1.65.52l-.24.06c-.52,0-1.05-.05-1.57-.08-1.15-.06-2.3-.09-3.46-.11l-2.11,0c-.55,0-1.1,0-1.64,0-1.29.08-2.58.13-3.87.16-1.14,0-2.29,0-3.42,0-1.32.08-2.63.11-3.94.17s-2.52.15-3.78.18-2.22.1-3.33.19c-1.29.11-2.58.19-3.87.29s-2.56.21-3.85.28-2.6.09-3.89.12-2.53.13-3.8.24c-2.59.22-5.21.33-7.81.65-1.16.14-2.32.31-3.47.56l-3.51.77c-1.07.25-2.14.47-3.19.75-.61.15-1.22.32-1.82.51s-1.2.45-1.8.7a23.23,23.23,0,0,0-2.93,1.52,25,25,0,0,0-3.2,2.31,19,19,0,0,0-2.21,2.18,19.54,19.54,0,0,1-1.9,2l0,0a9.05,9.05,0,0,1-1.68.9,14.26,14.26,0,0,1-3,.71c-1.12.11-2.24.2-3.36.28a28.87,28.87,0,0,1-3.72-.06c-1.22-.08-2.43-.18-3.65-.29s-2.63-.12-4-.14c-1.16,0-2.32,0-3.47-.06s-2.21-.1-3.31-.19c-2.48-.21-5-.19-7.45-.19-1.79,0-3.58.21-5.36.32s-3.59.3-5.37.5h.07c-1.29.14-2.58.28-3.86.44s-2.41.36-3.61.55c-2.21.35-4.42.75-6.61,1.29-1.25.31-2.48.7-3.73,1.06-1.09.32-2.19.64-3.28,1-2.29.71-4.58,1.42-6.86,2.17s-4.75,1.36-7.15,1.92c-1.16.28-2.32.57-3.49.84s-2.42.57-3.63.89c-1,.27-2,.61-2.94.9s-2.21.57-3.34.79-2.25.48-3.36.8c-.52.15-1,.33-1.55.48a9.26,9.26,0,0,1-1.46.31l-1.1.12c-1.37.15-2.74.33-4.11.49l.4,0-2.6.28-1.71.21c-.79.07-1.58.07-2.37.14a1.6,1.6,0,0,0-1.09.42,1.52,1.52,0,0,0-.45,1,1.57,1.57,0,0,0,.42,1.09,1.46,1.46,0,0,0,1,.45c.71-.06,1.43-.06,2.15-.12s1.32-.15,2-.23l1.38-.16c.71-.08,1.43-.14,2.14-.24l1.94-.25h.06l1.83-.2a13,13,0,0,0,1.77-.26c.56-.13,1.11-.32,1.66-.5a33.85,33.85,0,0,1,3.47-.87c1.13-.22,2.26-.44,3.37-.76s2-.66,3.06-.94c1.2-.32,2.41-.6,3.62-.89l3.63-.88c2.51-.58,5-1.22,7.45-2,1.14-.37,2.26-.76,3.4-1.11l3.07-.94c1-.32,2.06-.62,3.09-.92,1.2-.36,2.39-.72,3.6-1s2.19-.53,3.28-.75,2.07-.37,3.09-.54c2.37-.41,4.74-.72,7.12-1l1.1-.13q3.59-.36,7.19-.61c2.46-.16,5-.12,7.42-.05,1.23,0,2.46.16,3.69.21s2.23.15,3.34.16,2.38,0,3.57,0c1.34,0,2.66.11,4,.24,1,.1,2,.16,3.05.22a28.11,28.11,0,0,0,3.18,0c.95-.06,1.9-.16,2.85-.23a14.07,14.07,0,0,0,5.43-1.33,7.08,7.08,0,0,0,1.19-.69,11.27,11.27,0,0,0,2-1.8c.55-.61,1.09-1.22,1.67-1.8a21,21,0,0,1,1.95-1.7,24.79,24.79,0,0,1,2.62-1.68c.77-.4,1.54-.8,2.34-1.14a45.4,45.4,0,0,1,6.11-1.62l3.31-.73c1.06-.22,2.13-.38,3.21-.51,2.41-.24,4.83-.38,7.25-.59,1.26-.1,2.53-.22,3.8-.24s2.62,0,3.93-.11,2.54-.2,3.81-.29,2.6-.18,3.9-.29c1.15-.1,2.31-.16,3.46-.19s2.51-.13,3.76-.18l2.88-.13-.47.1c-.76.18-1.54.23-2.31.37a9.27,9.27,0,0,0-2.18.71c-.74.33-1.46.7-2.2,1a17.68,17.68,0,0,1-1.81.43l-.84.15c-.31.06-.63.13-.95.18-1.31.22-2.59.57-3.89.85-.64.14-1.25.36-1.9.46a1.92,1.92,0,0,0-.74.22,1.6,1.6,0,0,0-.81,1.33,1.63,1.63,0,0,0,.79,1.41,3.65,3.65,0,0,0,1,.39c1.3.37,2.61.71,3.91,1.09s2.69.53,4,.82a17,17,0,0,0,2.45.35c.73.05,1.45.07,2.18.08l2.08,0c.76,0,1.51-.06,2.26-.11,1.4-.11,2.8-.16,4.2-.17h2.06a21.68,21.68,0,0,1,2.28,0,5.9,5.9,0,0,1,1,.31,10.92,10.92,0,0,1,1.17.62l-.1,0a13.18,13.18,0,0,1-1.38.33c-1,.21-1.94.44-2.92.57-.78.08-1.57.11-2.35.18s-1.81.2-2.71.31a14.8,14.8,0,0,1-2,.09l-2.25-.09c-1.43,0-2.86-.05-4.28-.05H279a28.65,28.65,0,0,0-4.62.51c-1,.17-2,.37-3,.58s-1.8.34-2.7.53-1.94.29-2.88.58a24.62,24.62,0,0,0-2.46,1l-.55.22c-.34.12-.67.21-1,.31l-.67.22a4.53,4.53,0,0,0-.59.22,1.81,1.81,0,0,0-.63.6,1.56,1.56,0,0,0-.22.73,1.62,1.62,0,0,0,.43,1.09,2,2,0,0,0,1.21.53c.3.06.61.11.91.15.62.11,1.23.24,1.84.37a18.22,18.22,0,0,0,2.45.3c1.44.1,2.91.11,4.36.11.75,0,1.5-.08,2.24-.13s1.43-.09,2.14-.11a20.06,20.06,0,0,1,2,0c.71.05,1.4.16,2.1.27h.05c.73.14,1.46.29,2.2.39.57.07,1.14.08,1.7.15s.85.14,1.29.18.86.06,1.29.12,1,.14,1.44.19l-.6.33a1.49,1.49,0,0,0-.44.39,1.47,1.47,0,0,0-.62.35,1.51,1.51,0,0,0-.46,1,1.53,1.53,0,0,0,1.47,1.54c.29,0,.6,0,.89,0a1.55,1.55,0,0,0,.7-.18,1.62,1.62,0,0,0,.82.29c.67,0,1.35.13,2,.15s1.2,0,1.8-.05a16.11,16.11,0,0,0,2.2-.26c.65-.13,1.29-.29,1.94-.43s1.15-.25,1.72-.4,1.29-.3,1.93-.45c1.17-.25,2.35-.48,3.53-.64.46,0,.92-.08,1.38-.08h1.37a24.39,24.39,0,0,1,3.08.21l2.08.32.39.07.16,0,.08,0a1.81,1.81,0,0,1,.23,0c.47.07.94.11,1.41.16s.84.09,1.26.11c.93.05,1.85.17,2.79.24.76.06,1.52.07,2.28.17a39,39,0,0,0,4.3.49c.64,0,1.28.09,1.92.14a22.39,22.39,0,0,0,2.32.06c1.46,0,2.94,0,4.4-.07.66,0,1.31-.09,2-.16s1.57-.12,2.36-.17,1.78-.15,2.67-.28,1.5-.28,2.26-.42,1.34-.27,2-.43a15.79,15.79,0,0,0,2.39-.76c1.27-.51,2.52-1.08,3.79-1.61s2.49-1.06,3.73-1.6l2.06-.89c.67-.28,1.33-.56,2-.88a12.55,12.55,0,0,0,2.16-1.45c.62-.47,1.22-1,1.8-1.47a23.33,23.33,0,0,0,3.11-3.54c.78-1,1.55-2.09,2.25-3.19.38.08.75.15,1.13.21l-.13,0a13.63,13.63,0,0,1,2.08.67c.33.11.66.17,1,.25a7.35,7.35,0,0,1,.79.27,10,10,0,0,0,1.28.5c.38.12.79.18,1.16.32l.27.13,0,0,1.5.68a5.22,5.22,0,0,1,.86.55c.42.33.86.64,1.29,1l.15.12c.48.38.95.76,1.46,1.09s.84.53,1.25.83a9.73,9.73,0,0,1,1.37,1.49,13.89,13.89,0,0,1,1.45,2.58,7.62,7.62,0,0,1,.33,1.31,14.53,14.53,0,0,1-.08,2.72,5.16,5.16,0,0,1-.25.85,16.51,16.51,0,0,1-1.75,3,13.27,13.27,0,0,1-1.95,1.87c-.73.53-1.48,1-2.25,1.49a14.38,14.38,0,0,1-2.22,1.11l-2,.73a18.23,18.23,0,0,1-2.42.61c-.9.18-1.81.31-2.72.47-.75.13-1.49.3-2.24.41a34.53,34.53,0,0,1-3.67.07c-1.14,0-2.27-.09-3.41-.19a15.14,15.14,0,0,0-1.65,0c-.73,0-1.46.05-2.19.07-1.37.05-2.74.1-4.11.17s-2.48.06-3.72.14c-1.39.1-2.78.24-4.16.42-1.17.16-2.33.37-3.47.64s-2.32.5-3.48.74c-2.17.45-4.28,1.12-6.41,1.74s-4.38,1.11-6.56,1.73c-1.2.34-2.38.72-3.58,1.05s-2.17.55-3.25.8-2,.47-3,.68-2.25.42-3.39.56a27.6,27.6,0,0,1-2.87.16c-.92,0-1.84,0-2.76,0a44.4,44.4,0,0,1-5.4-.49c-1.15-.21-2.29-.43-3.44-.67s-2.32-.47-3.49-.65-2.48-.31-3.72-.4-2.4-.21-3.61-.26-2.5,0-3.74,0a36.62,36.62,0,0,0-3.92.2c-1.07.12-2.13.29-3.2.46l-3.63.53c-1.78.24-3.54.52-5.31.81s-3.56.51-5.35.73c-1.23.13-2.46.24-3.69.34-1.46.13-2.93.33-4.4.5-.63.07-1.26.13-1.9.15-.87,0-1.74,0-2.62,0a37.87,37.87,0,0,1-4.39-.39,42.3,42.3,0,0,1-6.69-1.86c-1-.33-1.9-.65-2.86-.93s-2-.53-3-.76c-2.19-.52-4.4-1-6.53-1.66s-4.41-1.64-6.58-2.55c-1.12-.5-2.19-1.08-3.3-1.6a25.18,25.18,0,0,0-3.57-1.35c-1.1-.34-2.21-.65-3.34-.92s-2.33-.6-3.5-.88-2.44-.47-3.68-.66-2.47-.26-3.7-.42-2.2-.3-3.3-.42c-1.26-.14-2.53-.22-3.79-.29s-2.52-.05-3.78-.05h-3.77c-2.39,0-4.76.06-7.15.21-1.14.06-2.29.07-3.44.16a22.28,22.28,0,0,0-3.71.62c-1.09.27-2.19.45-3.3.65-.52.09-1.05.21-1.57.31s-1.21.22-1.81.31a1.49,1.49,0,0,0-.41,2.74,1.54,1.54,0,0,0,1.13.17c1.64-.26,3.25-.59,4.88-.89s2.94-.68,4.44-.88c1.14-.11,2.29-.12,3.44-.18s2.42-.14,3.64-.18c2.51-.07,5-.05,7.55-.05,1.33,0,2.64,0,4,.06s2.52.16,3.79.3c1.08.12,2.15.28,3.23.41s2.48.24,3.71.43h.11l.1,0h.09c.88.15,1.77.32,2.65.52,1.08.26,2.16.56,3.25.82a38.94,38.94,0,0,1,6.16,1.93c1.05.47,2.07,1,3.1,1.51,1.21.58,2.48,1.07,3.73,1.57s2.27.86,3.41,1.26,2.43.75,3.67,1.06c2.14.52,4.31.93,6.43,1.56,1.1.32,2.19.7,3.27,1.07s2.34.76,3.53,1.1a33.89,33.89,0,0,0,7.82,1.09,28,28,0,0,0,4-.08c1.4-.13,2.79-.31,4.18-.47,1.95-.2,3.91-.35,5.86-.59s3.85-.52,5.78-.82,3.9-.6,5.86-.87c1.65-.23,3.3-.53,5-.73,1.19-.1,2.4-.13,3.59-.15s2.54-.05,3.81,0,2.4.17,3.59.27,2.33.22,3.5.38c2.35.42,4.66,1,7,1.34,1.16.17,2.34.31,3.51.4s2.23.09,3.34.1h1.88c.7,0,1.38-.08,2.07-.15,1.26-.13,2.51-.3,3.75-.55,1.06-.21,2.11-.46,3.17-.71s2.07-.48,3.1-.74,2.26-.65,3.39-1,2.13-.59,3.21-.86c1.9-.46,3.78-1,5.66-1.55,1-.29,1.92-.56,2.89-.82s2-.45,3-.67l2.89-.63c1.11-.24,2.23-.42,3.36-.57s2.31-.25,3.46-.31,2.51-.07,3.76-.14c1.42-.07,2.85-.12,4.28-.16l1.88-.06a17,17,0,0,1,1.75.08c1.15.1,2.31.13,3.46.14a24.8,24.8,0,0,0,4.13-.2c.56-.09,1.11-.2,1.67-.31l2.1-.36a19.58,19.58,0,0,0,3.61-.87c1.13-.42,2.27-.82,3.38-1.33a11.63,11.63,0,0,0,1.42-.79c.59-.35,1.16-.71,1.72-1.11s1.09-.8,1.61-1.24a11.49,11.49,0,0,0,1.3-1.31,14.09,14.09,0,0,0,1.65-2.41,11.52,11.52,0,0,0,1.14-2.5,8.69,8.69,0,0,0,.24-1.61c0-.53.07-1.06.07-1.59A9.6,9.6,0,0,0,388.36,334.13Zm-83.73-119.2c.58,1.2,1.23,2.36,1.86,3.53s1.13,2.15,1.64,3.26,1,2.16,1.49,3.25,1,2.14,1.44,3.23c.75,2,1.33,4,2,6,.32,1,.65,1.93,1,2.89s.65,2.09.94,3.15c.23.86.45,1.73.66,2.6s.51,1.94.77,2.9.58,2,.78,3,.31,1.8.42,2.71c.12,1.09.22,2.19.28,3.29a42.67,42.67,0,0,1,0,4.38c-.07,1.38-.18,2.76-.26,4.14-.07,1.22-.25,2.46-.43,3.68l-.27,1.73.06-.38c-.16,1-.33,2-.5,3a26.12,26.12,0,0,1-.56,2.77c-.26,1-.57,1.91-.91,2.85l-.22-.12-3.58-2.1c-.52-.3-1-.61-1.55-.9s-1.29-.68-1.94-1c-1.29-.69-2.6-1.34-3.87-2.06s-2.4-1.51-3.6-2.26-2.39-1.38-3.63-2c-.56-.27-1.12-.51-1.66-.81s-1.25-.69-1.88-1c-1.16-.66-2.29-1.37-3.47-2l-1.7-.88c-.7-.37-1.38-.78-2.07-1.17-1.19-.67-2.35-1.39-3.47-2.17s-2.31-1.64-3.54-2.35c-.59-.35-1.19-.69-1.8-1L275,254a40.64,40.64,0,0,1-3.69-2.09c-1.12-.72-2.24-1.43-3.37-2.13-2.48-1.53-5-3.07-7.41-4.65-1.45-.94-2.95-1.79-4.47-2.6a39.59,39.59,0,0,1-4.51-2.82c-1-.81-2-1.64-3.09-2.4s-2.31-1.58-3.48-2.35l-1.8-1.12c-.62-.38-1.21-.78-1.8-1.18l-.13-.09c2-.28,4-.49,6-.8,1.12-.17,2.25-.34,3.37-.57s2-.44,3-.64c1.62-.33,3.25-.67,4.83-1.15s3.07-1.07,4.58-1.68,3.21-1,4.83-1.51,3.33-1.08,5-1.73l-.37.15c.9-.35,1.81-.69,2.73-1s1.74-.53,2.6-.81,1.84-.59,2.75-.92a29.44,29.44,0,0,0,3.34-1.51c1-.51,2-1.07,3-1.59s1.95-1,2.93-1.48c1.66-.84,3.27-1.76,4.91-2.64.75-.4,1.51-.82,2.22-1.29l2.11-1.42c.71-.49,1.44-1,2.13-1.5a8,8,0,0,0,1.06-1C303,211.25,303.76,213.11,304.63,214.93Zm-12.08-18.87c-.06.27-.11.54-.19.8-.06,0-.11-.07-.18-.09a1.51,1.51,0,0,0-.44-.06h-.08l0,0C291.94,196.49,292.25,196.27,292.55,196.06Zm-17,11.89-.07-.1v-.06l.17-.06.47-.2Zm-20.82,9.21v0l.12.21h-.19C254.71,217.28,254.74,217.22,254.76,217.16Zm8.1-5.17h-.09a1.55,1.55,0,0,0-.37,0,1.89,1.89,0,0,0-.09-.21l.12,0c.35-.08.69-.18,1-.28Zm-3.46.55a1.82,1.82,0,0,0,.11.3l.42,1-.15.13c-.23-.39-.45-.79-.65-1.19a.76.76,0,0,1-.08-.11ZM254.13,214s0,0,0,0a1.32,1.32,0,0,0-.39-.06,1.49,1.49,0,0,0-1.47,1.08c-.1.45-.21.9-.34,1.34-.09.27-.19.53-.3.79s-.28.61-.43.91a14.34,14.34,0,0,1-.81,1.36,1.35,1.35,0,0,0-.21.75l-.2.05-.17,0c.27-.6.53-1.2.77-1.81.36-.94.66-1.91,1-2.87a1.45,1.45,0,0,0-.2-1.25l1.14-.29c.57-.14,1.15-.24,1.73-.34a1.12,1.12,0,0,0,0,.31Zm-6.19,2.76c-.22.64-.47,1.26-.74,1.89l-.54,1.15a1.59,1.59,0,0,0-.19,1l-.33.08q.18-.58.33-1.17a12,12,0,0,0,.29-1.68,8.11,8.11,0,0,0-.18-2.19,1.07,1.07,0,0,0-.25-.54l.21,0c.67-.11,1.33-.23,2-.36C248.34,215.54,248.15,216.15,247.94,216.75Zm-5,4.91v0h0Zm-4.69-3.85c-.08.26-.15.52-.22.78a1.44,1.44,0,0,0-.18-.6,1.5,1.5,0,0,0-.89-.71,1.75,1.75,0,0,0-.4-.05,1.58,1.58,0,0,0-1.21.58,1.39,1.39,0,0,0-.4-.06,1.52,1.52,0,0,0-1.3.72c-.91,1.51-1.65,3.11-2.41,4.7a.08.08,0,0,1,0,0c.08-.38.15-.76.22-1.15a1.67,1.67,0,0,0-.13-1.16,1.71,1.71,0,0,0-.22-.25c.12-.56.21-1.12.28-1.69a1.39,1.39,0,0,0,.9.34,1.52,1.52,0,0,0,1.53-1.47,1.73,1.73,0,0,0,0-.32c1.28-.19,2.56-.38,3.83-.64l1-.2C238.45,217.05,238.33,217.43,238.22,217.81Zm-12.13,1.5a1.28,1.28,0,0,0-.59.56l0,0a1.34,1.34,0,0,0-.07-.27,1.59,1.59,0,0,0,0-.84l1-.14C226.26,218.88,226.17,219.09,226.09,219.31Zm-3.78.26-.25-.21.33-.05C222.36,219.4,222.34,219.49,222.31,219.57Zm13.55,6.79c2-.41,3.95-.88,5.92-1.32s4-1,6.06-1.43c1-.2,1.94-.32,2.9-.54,1.13-.27,2.24-.59,3.37-.87,1-.23,1.94-.4,2.91-.62s2.06-.6,3.08-.93,2-.63,3-.87l1.37-.34c.44-.13.88-.29,1.31-.45s1-.42,1.49-.64l.59-.25.72-.27c1.1-.41,2.2-.82,3.28-1.29.87-.39,1.74-.78,2.62-1.14s2-.73,3-1.12h0l.3-.12,0,0h0c.8-.32,1.58-.67,2.35-1.07s1.69-1,2.52-1.45c1.7-1,3.52-1.82,5.18-2.92s3.17-1.95,4.71-3c.77-.53,1.53-1.1,2.24-1.7s1.22-1.12,1.86-1.63l.32-.25c.86-.63,1.77-1.21,2.63-1.85.66-.51,1.3-1,1.94-1.57.46-.38.88-.8,1.3-1.22,0,.35-.06.7-.07,1,0,.65,0,1.3-.13,2a23.3,23.3,0,0,1-.75,2.72c-.26.81-.51,1.6-.82,2.38a11.49,11.49,0,0,1-1.08,1.74,6.87,6.87,0,0,1-.95.92c-1.19.85-2.42,1.66-3.63,2.48-.67.46-1.4.86-2.11,1.25s-1.66.92-2.5,1.37c-1.67.89-3.37,1.74-5.06,2.61q-1.44.72-2.85,1.5a26.56,26.56,0,0,1-2.83,1.4c-1.45.55-2.93,1-4.42,1.46s-3.07,1.05-4.58,1.64-3.3,1.16-5,1.63c-.89.25-1.77.52-2.65.81s-1.82.68-2.72,1a39.2,39.2,0,0,1-5.89,1.79c-1,.22-2.08.43-3.11.67s-2,.45-3.05.62c-2.16.37-4.34.64-6.52.92-1.52.2-3,.44-4.55.66-1.14-.76-2.3-1.49-3.44-2.25-.49-.33-1-.68-1.45-1A30.68,30.68,0,0,0,235.86,226.36Zm66.48-42.08c-.29.34-.57.69-.86,1s-.82.94-1.27,1.37-.87.76-1.32,1.12-1,.67-1.44,1l-1.9,1.3c-1.33.89-2.52,2-3.8,2.92l.07-.05-.23.18c-1,.69-2,1.33-3,2l-1.44,1c-.55.37-1.13.69-1.69,1s-1,.6-1.51.87-1.16.52-1.73.8-1.16.58-1.71.9a11.9,11.9,0,0,0-1.32.91c-.59.43-1.2.84-1.82,1.21a27.34,27.34,0,0,1-2.54,1.27c-.79.38-1.54.8-2.29,1.25a17.18,17.18,0,0,1-2.11,1.14c-1.19.45-2.4.86-3.57,1.39-.93.42-1.82.92-2.75,1.32-1.85.66-3.8,1-5.7,1.53-1,.28-2.06.57-3.12.75s-2,.31-3,.5-2,.49-2.94.73-1.92.43-2.9.61-2.13.3-3.19.46-1.85.32-2.77.5l-4.54.88c-.78.16-1.57.27-2.35.39l-3,.46c-.82.13-1.63.28-2.44.42s-1.49.2-2.23.3-1.67.25-2.5.39-1.6.31-2.41.41-1.55.07-2.32.07q-.84-.67-1.71-1.32c-1.93-1.4-4-2.59-6-4-1.42-1.13-2.8-2.31-4.25-3.4l-.81-.6c1.05,0,2.11,0,3.16,0s2.07-.08,3.1-.13c2-.11,4.05-.24,6.07-.32s3.88-.31,5.81-.53l-.4.05c2-.21,4-.28,6-.62s3.75-.65,5.62-1,3.82-.9,5.74-1.28c.92-.19,1.84-.36,2.76-.57s1.92-.5,2.88-.76,1.76-.51,2.66-.72l2.79-.65c1.76-.4,3.5-.85,5.22-1.37a49.22,49.22,0,0,0,5.88-2.15c1.76-.8,3.41-1.81,5.17-2.63s3.39-1.33,5-2.18c.81-.43,1.61-.84,2.45-1.2a22.94,22.94,0,0,0,2.63-1.3c1.49-.9,2.92-1.9,4.44-2.72.85-.46,1.69-.93,2.53-1.4a15.54,15.54,0,0,0,2.51-1.73c.81-.67,1.56-1.42,2.33-2.13s1.48-1.32,2.27-1.92a18.68,18.68,0,0,0,3.12-2.62c.45-.51.85-1,1.25-1.6l.19-.26.07-.08c.19-.22.4-.43.61-.63.41-.39.78-.8,1.16-1.22.18-.19.36-.39.53-.59l.06.17c.3.82.61,1.65.89,2.48s.52,1.66.73,2.5.32,1.5.45,2.25C302,181.72,302.16,183,302.34,184.28Zm-118,10.34a18.67,18.67,0,0,1-4.3,1l.25,0-.27,0h0c-.54-.51-1.1-1-1.68-1.5a38.54,38.54,0,0,0-3.2-2.34l-.62-.44c0-.11,0-.22-.07-.33a2.32,2.32,0,0,0-.13-.37c.19-.48.36-1,.52-1.46a14.2,14.2,0,0,0,.56-2.57c.64.54,1.27,1.09,1.86,1.68.91.91,1.81,1.81,2.78,2.65s2,1.58,3,2.33l1.62,1.21Zm1.45-3-2.61-1.93c-.82-.66-1.63-1.34-2.39-2.07s-1.61-1.67-2.49-2.43-1.69-1.41-2.56-2.09a4.66,4.66,0,0,0,.24-3.2,2.56,2.56,0,0,0-1-1.37,2.85,2.85,0,0,0-1.08-.41,4.08,4.08,0,0,0-.68-.06,3.83,3.83,0,0,0-.73.07,2.72,2.72,0,0,0-1,.45,3.33,3.33,0,0,0-.64.54l-.26-.23c-.77-.75-1.53-1.51-2.31-2.24s-1.52-1.37-2.31-2-1.75-1.36-2.63-2-2-1.61-2.88-2.48-2-1.94-3-2.88c-1.95-1.83-4-3.49-6.08-5.2a36.36,36.36,0,0,1-2.73-2.68c-1-1-1.94-1.94-3-2.86-2-1.82-4.14-3.53-6.16-5.37-1-.88-1.89-1.82-2.87-2.71l-1.83-1.67.18-.6c.16-.6.36-1.18.49-1.78s.27-1.29.38-1.94l0-.22h0v0h0v0a12.89,12.89,0,0,0,.16-2.77,7.13,7.13,0,0,0-.18-1.14h0c1.45.66,2.94,1.23,4.4,1.84a38.21,38.21,0,0,0,4.42,1.48c1.44.4,2.89.81,4.35,1.11,1.66.33,3.33.52,5,.69s3.1.34,4.64.56c.8.12,1.6.21,2.4.25s1.71,0,2.56,0a23.54,23.54,0,0,0,4.57-.59c1.45-.33,2.91-.65,4.38-.87s2.94-.42,4.39-.75a33.09,33.09,0,0,0,4.42-1.45c1.51-.57,3-1.08,4.51-1.75a14,14,0,0,0,2-1.13,18.75,18.75,0,0,0,2-1.66c1.21-1.08,2.48-2.09,3.76-3.07l1.74-1.33h0s0,0,.05-.05l0,0,.26-.21c.34,0,.68,0,1,0,1.1.23,2.18.5,3.27.7a25.58,25.58,0,0,0,3.49.32c.53,0,1,.13,1.57.19s1.27.1,1.91.12c.46,0,.93,0,1.4,0a16.46,16.46,0,0,0,1.72-.2h.06l0,0a11.45,11.45,0,0,0-1.14.92,9.35,9.35,0,0,0-.89,1c-.52.64-1,1.33-1.46,2a16.26,16.26,0,0,0-1.17,1.56c-.37.6-.72,1.21-1.08,1.82a19.82,19.82,0,0,0-1.83,4.23c-.41,1.34-.9,2.65-1.24,4s-.68,2.38-1,3.57-.55,2.27-.82,3.41c-.31,1.33-.6,2.65-.81,4s-.54,2.93-.75,4.4-.41,2.8-.58,4.19c-.14,1.13-.26,2.26-.42,3.39,0-.13,0-.26.06-.39-.25,1.53-.44,3.07-.63,4.61s-.38,2.8-.58,4.19c-.1.74-.19,1.48-.28,2.22s-.14,1.52-.22,2.28c-.15,1.4-.34,2.79-.53,4.18-.12.83-.2,1.66-.27,2.49-1.54.58-3.09,1.14-4.62,1.74l-2.06.81C187.14,192.61,186.46,192.1,185.78,191.6ZM169.89,48.39l.67.31c-.32,0-.65-.05-1-.06h-.7l.57-.63A1.18,1.18,0,0,0,169.89,48.39ZM180.37,36l.17,0a2.49,2.49,0,0,0,.11.29h-.27a1.36,1.36,0,0,0-.29,0Zm10.85-11a1.68,1.68,0,0,0,.82.28c.23,0,.45,0,.68.05s.24.06.36.09.31.18.46.27a.76.76,0,0,0-.11.22l-.72-.3a8.4,8.4,0,0,0-1.8-.33Zm16.66-4.23.27.24c-.54-.21-1.09-.42-1.65-.62a1.2,1.2,0,0,0-.42-.07,1.34,1.34,0,0,0-.39.07l-1.24-.66a1.37,1.37,0,0,0,.7-.6A18.81,18.81,0,0,1,207.88,20.81Zm-20.76,13h0v0Zm16.63-10.68,1.66.69,1.17.55h-.06a1.5,1.5,0,0,0-.58.14c-.62-.34-1.24-.69-1.89-1a13.47,13.47,0,0,0-1.36-.57l.21-.12C203.19,22.94,203.47,23.05,203.75,23.17Zm13.86-11.92.8.69a1.81,1.81,0,0,0-.21.18c-.33-.27-.67-.54-1-.79A1.56,1.56,0,0,0,217.61,11.25Zm-.09,41L218,53c-.27-.14-.54-.28-.82-.41h0l-.58-.66Zm-6.92,6.06c.13.19.27.38.39.58l-.48-.61Zm5.24,23.29,0-.08.52.15Zm-1.14,12h0Zm-7.9-47,.28.14.09.05ZM220.09,17l-.07.06-.41-.29ZM207.34,43.2a1.9,1.9,0,0,0,.63.19l.12.07,1.59,1.15c-1.46-.78-2.93-1.53-4.41-2.28-.65-.33-1.34-.62-2-.93s-1.54-.67-2.32-1l-1.56-.62c-.24-.24-.5-.48-.76-.71C201.54,40.44,204.45,41.79,207.34,43.2Zm5.31,61.15-.11-.07h.12S212.66,104.32,212.65,104.35Zm5.84-84.72-.11,0-.76-.51-.51-.32,0-.11C217.62,19,218.06,19.32,218.49,19.63ZM195.33,51.16c.59.26,1.16.55,1.72.84-.66-.32-1.31-.64-2-.93l-.92-.38C194.55,50.84,194.94,51,195.33,51.16Zm4.21,7.43.12.06-.09,0h0ZM197,45a.37.37,0,0,0,0,.11l-.22-.2Zm7.83-15.11-.34-.22c.42.16.83.31,1.24.48a16.83,16.83,0,0,1,3.19,1.95c-1.27-.68-2.55-1.36-3.84-2A2.43,2.43,0,0,0,204.85,29.91Zm-18.22,7,.87.36c.66.29,1.32.59,2,.91a1.13,1.13,0,0,0,.38.19l.33.16c1.11.61,2.2,1.24,3.28,1.89a1.52,1.52,0,0,0,.9.21l0,.11a1.37,1.37,0,0,0,.6.57c-.42-.1-.83-.18-1.25-.26a1.11,1.11,0,0,0-.12-.27,1.71,1.71,0,0,0-.88-.71c-1.68-.71-3.37-1.43-5.08-2.08-.39-.15-.78-.33-1.18-.45l-.42-.12A1.49,1.49,0,0,0,186.63,36.87Zm-5.9,6.69,0,0c-.2-.13-.4-.26-.61-.38l.81.28Zm4.76,5.07s0,0,0,0a1.64,1.64,0,0,0,.14-.3c.69.39,1.38.76,2.1,1.11a1.61,1.61,0,0,0,1.14.16,1.08,1.08,0,0,0,.3-.11,1.69,1.69,0,0,0,.57.24h-.12a1.62,1.62,0,0,0-1.08.44l-1.13-.59C186.79,49.22,186.14,48.93,185.49,48.63Zm24.35-30.42A9,9,0,0,1,211,19a1.34,1.34,0,0,0-.32.35,11.46,11.46,0,0,0-1.13-1c-.47-.35-1-.66-1.45-1C208.71,17.66,209.28,17.92,209.84,18.21Zm-10.79,8.33-.08-.16c.48.2,1,.39,1.45.55.79.27,1.57.53,2.35.81a1.55,1.55,0,0,0,.14.92l-.38-.24c-.75-.45-1.51-.87-2.29-1.26Zm-4.25,5.88-1.19-.36c0-.06,0-.11,0-.16a1.46,1.46,0,0,0-.08-.48l.23.09a16.1,16.1,0,0,1,2.14,1.21l.18.13C195.67,32.7,195.23,32.55,194.8,32.42Zm-10,7.7.8.25a1.44,1.44,0,0,0-.15.61,1.52,1.52,0,0,0,.42,1.09,1.7,1.7,0,0,0,1,.45l.7.09a9.89,9.89,0,0,1,2,.62,13.51,13.51,0,0,1,2,1.19l-.59.17a1.34,1.34,0,0,0-.3.12c-1-.37-2.06-.62-3.09-.9-.61-.16-1.23-.32-1.84-.5a1.54,1.54,0,0,0-.68-.93l-.79-.51a1.32,1.32,0,0,0,.08-.44,1.27,1.27,0,0,0-.07-.48,1.59,1.59,0,0,0,.32-.86Zm10.13-11.63a2.72,2.72,0,0,0,.11-.25,16.67,16.67,0,0,1,1.7.52c1,.48,2.06,1,3.07,1.54l.27.16a1.66,1.66,0,0,0,.14.37,1.63,1.63,0,0,0,.89.7l.58.24c1.11.52,2.21,1.07,3.3,1.64l-.41,0c-1.34-.67-2.7-1.29-4-1.94a1.94,1.94,0,0,0-.8-.21,1.4,1.4,0,0,0-.34,0,.8.8,0,0,0-.2.07,28.94,28.94,0,0,0-2.67-1.86,12.69,12.69,0,0,0-1.78-.86A1.14,1.14,0,0,0,194.92,28.49Zm-4.79,3.35a2,2,0,0,0-.23.27l-.07,0a1.5,1.5,0,0,0,.27-.29ZM178.64,48.75h-.16s0,0,0-.06ZM200,19.62l-.15,0-.14-.08.33.09Zm-9.1,8.81-.17-.14h0l.2,0ZM176.9,44.86l.17.08-1.23-.41h0A5.93,5.93,0,0,1,176.9,44.86ZM223.6,3.6l0-.05h0S223.6,3.58,223.6,3.6Zm-8.73,4.17-.21-.06a.8.8,0,0,1,.16-.08A1.21,1.21,0,0,0,214.87,7.77Zm-3.61,2.16-.12,0,.07-.06Zm-2.19,2.35,0,.05c-.23-.1-.47-.19-.71-.27l.33-.23A1.53,1.53,0,0,0,209.07,12.28Zm-4.33,2.14a1.44,1.44,0,0,0,.18.25h0l-.48-.08a3.28,3.28,0,0,0,.31-.2Zm-3.32,2.2a1.49,1.49,0,0,0,.23.28l-.18,0-.29-.07Zm-11.8,11.15a6.7,6.7,0,0,0-1.08-.23l.73-.7A1.51,1.51,0,0,0,189.62,27.77ZM179.05,38.51a5.08,5.08,0,0,1-.51-.17l-.13-.07.44-.51A1.48,1.48,0,0,0,179.05,38.51Zm-3.4,2.76a1.43,1.43,0,0,0,.22.26c-.14,0-.29,0-.44,0Zm.48,10.36.09.12-.32-.07-.87-.16ZM200.86,68a.41.41,0,0,0-.07.11l-.21-.32-.06-.1Zm1.57,2.39,0,.08-.07-.08ZM262,191l.77-.08a1.42,1.42,0,0,0-.05.22c-.18.11-.37.22-.54.34s-.42.32-.62.47h0l-.24,0C261.56,191.68,261.8,191.36,262,191Zm8.52-6.5a33.7,33.7,0,0,1-2.11,3.09l-.43.54c.74-1.13,1.51-2.25,2.32-3.33a1.08,1.08,0,0,0,.14-.26ZM254,193.85l1.11-.32v.13a1.21,1.21,0,0,0,.21.79c-.23.09-.44.18-.67.25l-1.34.46c0-.14,0-.28,0-.42a5.9,5.9,0,0,1,.21-.75Zm-6.81,3.49a1.47,1.47,0,0,0-.5-.49,1.08,1.08,0,0,0-.29-.13q.65-.37,1.32-.69l.37-.16a8.39,8.39,0,0,0,.45,1l-1,.36A2.17,2.17,0,0,0,247.17,197.34Zm-4.78-3.81.71-.11c1-.15,1.93-.28,2.89-.4l1.11-.09Zm-2,3.28,2.48-.33a1.54,1.54,0,0,0,.16.5l0,0-.25,0c-2.52.25-5.05.35-7.58.5l1.06-.15C237.66,197.19,239,197,240.39,196.81Zm-13.53.7a1.39,1.39,0,0,0,.11.74l-1.09.09.43-.8,0-.08Zm-16,4.52-.13-.05a1.18,1.18,0,0,0,.11-.19l.82.2c0,.07-.07.15-.11.23Zm3.88.5.81.1-.85,0Zm7.28-3.43c-.23.41-.45.83-.67,1.24l-.86-.11c.24-.34.49-.67.74-1l.09-.11Zm-5.54.19a1.8,1.8,0,0,0,.32-.06l.74,0c-.15.2-.28.4-.42.6l-.88-.09Zm-11.49.23.15-.38Zm2.22,4.31a1.66,1.66,0,0,1-.06-.21,7.18,7.18,0,0,1,.06-.8,12.7,12.7,0,0,1,.3-1.39v0l.19,0a6.08,6.08,0,0,0-.22.76.84.84,0,0,0-.12.23,1.5,1.5,0,0,0,0,.7c0,.14,0,.29,0,.43a1.41,1.41,0,0,0,.18.73h-.24A1.44,1.44,0,0,0,207.24,203.83Zm23.09-1.23-.37.06a1.3,1.3,0,0,0-.23-.18l2-.17.95-.11C231.87,202.33,231.09,202.45,230.33,202.6Zm10.34-2.38c.81-.05,1.61-.12,2.41-.21l-1.21.26-1.42.28A1.46,1.46,0,0,0,240.67,200.22Zm45.07-26.29c-.26.17-.51.35-.78.51.31-.23.61-.46.9-.7Zm-20,11a1.66,1.66,0,0,0,.14.37,1.79,1.79,0,0,0,.22.25c-.31.46-.62.92-.92,1.39-.17.25-.33.52-.49.78h-.17c.26-.33.53-.66.78-1a1.45,1.45,0,0,0,.17-1.13,1.74,1.74,0,0,0-.22-.48Zm-4.7,2.48-.61.78-.35.05.32-.63a1.59,1.59,0,0,0,.17-.93l1.35-.43C261.66,186.68,261.37,187.07,261.07,187.45Zm-4.6,1.38-.26.54-.41.23a1.88,1.88,0,0,0-.23.16,1.55,1.55,0,0,0-.4-.81l-.17-.14.58-.2,1.23-.44C256.69,188.39,256.58,188.61,256.47,188.83ZM252,190.21c-.07.1-.12.21-.19.32a1.34,1.34,0,0,0-.28-.42l-.09-.08,1-.35Zm-16.16,3.43a1.5,1.5,0,0,0,.18.54c0,.08.12.13.17.2l-1.07.16-1.89.27c-.81.11-1.62.24-2.42.39l-.91-.23-1-.19c.47-.09.93-.19,1.4-.27,1-.18,2-.3,3-.44S235,193.8,235.86,193.64Zm-20.3,2.66c-.65,0-1.29.1-1.93.18,0,0,0,0,0,0l1.59-.13c.14,0,.27,0,.4,0Zm-4.63.57-.09,0a11.35,11.35,0,0,0-1.8.47l-.18.08v0a1.41,1.41,0,0,0-.28-.56l.69-.08,1.93-.16Zm-5.14.85a1.45,1.45,0,0,0,.07-.59h.2Zm-5.22-.48Zm-8-2.77c.54-.21,1.08-.4,1.63-.6-.09.94-.17,1.88-.23,2.82,0,.52-.07,1-.11,1.57l-.29-.21c-.84-.67-1.67-1.36-2.49-2.06l-.74-.66Zm65.66-83.65a2.34,2.34,0,0,1,.38.09c.22.06.44.1.66.14a4.56,4.56,0,0,1,1,.3,5.55,5.55,0,0,1,.87.59h0l0,0,.23.18c.64.51,1.31,1,2,1.5s1.53,1.25,2.27,1.9a22.13,22.13,0,0,1,2,2c.33.37.69.7,1,1.06s.57.59.85.9a22.86,22.86,0,0,1,1.59,1.81c.35.47.71,1,1.09,1.4s.92,1,1.38,1.56c.83,1,1.66,2,2.45,3,.58.79,1.15,1.59,1.68,2.41s1,1.65,1.57,2.47a50.65,50.65,0,0,1,2.76,5.13c.41.84.84,1.65,1.32,2.44s1,1.59,1.54,2.38,1,1.57,1.51,2.37,1,1.83,1.47,2.79.84,1.8,1.27,2.69.87,1.67,1.31,2.5.89,1.76,1.29,2.66.74,1.77,1.13,2.66.78,1.54,1.19,2.29l.65,1.18-.23.25c-.42.45-.8.93-1.18,1.41a31.78,31.78,0,0,1-4.87,4.71c-.84.67-1.52,1.49-2.36,2.16s-1.93,1.59-2.91,2.35c-1.35,1-2.77,1.81-4.17,2.69-.69.43-1.41.78-2.13,1.15l-2.45,1.25c-.85.44-1.66,1-2.47,1.47a13,13,0,0,1-1.13.68c-.43.23-.86.43-1.3.64-.91.43-1.83.85-2.76,1.27s-1.61.75-2.43,1.09c-1,.38-2,.7-3,1s-2.07.68-3.09,1.08l-.37.15h0l-1,.38c-1.77.69-3.59,1.24-5.39,1.89-.79.28-1.59.57-2.41.8l-2.6.7c-2,.53-3.94,1.12-5.95,1.47-.94.17-1.88.29-2.83.44s-1.8.32-2.7.5c-1.93.39-3.88.55-5.81.91-1.76.32-3.49.71-5.27.93-1.29.14-2.59.25-3.9.35s-2.62.16-3.93.27c-2.71.21-5.44.4-8.14.71l.4-.05-1.85.21.4,0c-1,.11-2,.18-3,.19h-6.68c0-.52.09-1,.13-1.57A31.48,31.48,0,0,0,201,190.8c.64-.37,1.27-.77,1.9-1.16s1.38-.83,2.08-1.23c1.11-.63,2.2-1.28,3.27-2s2.12-1.39,3.2-2a34.72,34.72,0,0,0,3.28-2.26c.5-.39,1-.84,1.44-1.26s.85-.76,1.3-1.11c1.15-.84,2.37-1.56,3.53-2.38.72-.51,1.44-1,2.12-1.61s1-1,1.59-1.43c1.17-1,2.42-1.93,3.61-2.93.39-.33.75-.69,1.12-1,.24.37.48.74.73,1.11.44.66.89,1.31,1.39,1.92a21.7,21.7,0,0,0,3.09,3.12,18.69,18.69,0,0,0,4,2.5,15.83,15.83,0,0,0,2.28.89,14.15,14.15,0,0,0,2.59.43c.75.07,1.51.07,2.27.11s1.39.08,2.09.1a11,11,0,0,0,4.72-1,13.68,13.68,0,0,0,2.25-1.16c.71-.48,1.4-1,2.09-1.51h0a30.91,30.91,0,0,0,3.62-2.83,22.56,22.56,0,0,0,2.7-3.78c.82-1.3,1.62-2.61,2.34-4a23.71,23.71,0,0,0,1.67-4,19.34,19.34,0,0,0,.85-4.45,29.51,29.51,0,0,0,0-4.41,32,32,0,0,0-.69-4.58,15.39,15.39,0,0,0-.84-2.39c-.27-.66-.55-1.31-.87-1.94a25.47,25.47,0,0,0-2.23-3.58q-.61-.85-1.2-1.74c-.37-.57-.72-1.15-1.1-1.71a9.6,9.6,0,0,0-1.52-1.78,16.27,16.27,0,0,0-2-1.41,27.93,27.93,0,0,0-3.73-2.18,18.84,18.84,0,0,0-4.16-1.19c-.69-.13-1.35-.31-2-.47a19.64,19.64,0,0,0-2.17-.36,17.35,17.35,0,0,0-2.39-.3h-.76a4.36,4.36,0,0,0-.8.09l-.36,0a1.77,1.77,0,0,0-1.35.36,6.92,6.92,0,0,0-.88.19,13.59,13.59,0,0,0-2.15.91,11.81,11.81,0,0,0-3.54,2.86,21.82,21.82,0,0,0-2.58,3.74,28.12,28.12,0,0,0-2,4.17,35.5,35.5,0,0,0-1.14,4.31c-.36,1.55-.72,3.09-1,4.66-.1.72-.21,1.44-.26,2.17s-.08,1.61-.1,2.41a36.71,36.71,0,0,0,.18,4.69c.17,1.59.31,3.18.59,4.75a11,11,0,0,0,.81,2.55c-.35.38-.7.74-1.07,1.1-.71.66-1.48,1.25-2.25,1.84s-1.54,1.23-2.28,1.89-1.41,1.27-2.16,1.86c-.57.42-1.15.84-1.75,1.22-.76.49-1.51,1-2.25,1.49-1.38,1-2.56,2.19-3.89,3.23-.54.39-1.08.78-1.64,1.13s-1.29.79-1.93,1.2c-1.29.82-2.57,1.66-3.87,2.46-.68.41-1.38.79-2.06,1.18s-1.32.79-2,1.2c-1,.65-2.12,1.26-3.22,1.82.25-2.21.6-4.42.78-6.64.12-1.45.35-2.9.55-4.34s.38-2.92.59-4.37c.11-.83.21-1.66.32-2.49.21-1.38.35-2.77.54-4.16s.34-2.53.52-3.8.48-2.63.69-3.95.53-2.62.83-3.93c.26-1.15.51-2.31.85-3.45s.69-2.37,1-3.57c.26-1,.6-1.89.9-2.83s.54-1.76.89-2.62.76-1.5,1.18-2.23a22.19,22.19,0,0,1,1.46-2.25l0,0,.87-1.14c.26-.36.5-.72.77-1.07a9.71,9.71,0,0,1,1.36-1.36l.47-.36c.66-.47,1.33-.91,2-1.4a1.56,1.56,0,0,1-.2.16,11.77,11.77,0,0,1,1.48-1,18.65,18.65,0,0,1,1.88-.85l-.06,0a25.57,25.57,0,0,1,3.74-1.23c1.08-.24,2.17-.45,3.28-.59l.59-.07c.73-.08,1.45-.16,2.18-.3l1.56-.31c1.27-.26,2.53-.52,3.81-.74.61-.1,1.22-.24,1.83-.35s1.18-.21,1.77-.34c1.14-.25,2.24-.65,3.37-.94.61-.16,1.22-.35,1.84-.51s1.26-.29,1.89-.43c1.3-.29,2.59-.61,3.86-1s2.7-.74,4-1.2c.68-.23,1.33-.51,2-.78s1.26-.52,1.87-.83c.87-.43,1.72-.91,2.57-1.41.68-.41,1.42-.7,2.1-1.11a4.13,4.13,0,0,0,1-.81c.28-.33.52-.71.78-1.07a4.81,4.81,0,0,0,.61-1.14,5,5,0,0,0,.19-1.73,1.51,1.51,0,0,0-1.46-1.53h0a1.51,1.51,0,0,0-1.46,1.15c-.25-.59-.48-1.18-.72-1.76h0c-.24-.62-.49-1.23-.73-1.85Zm-28.16,53.44c-.11-.62-.2-1.25-.28-1.88a49.33,49.33,0,0,1-.4-5.57c0-1,0-2,.07-3,0-.84.16-1.68.28-2.52.25-1.55.62-3.07,1-4.6a28.83,28.83,0,0,1,1.31-4.55c.43-.93.92-1.82,1.42-2.7a22.3,22.3,0,0,1,1.65-2.59,14.77,14.77,0,0,1,2.17-2.23,12.14,12.14,0,0,1,2.22-1.19,15.55,15.55,0,0,1,2.44-.51,1.6,1.6,0,0,0,.33-.11l.15,0c.27,0,.55,0,.81,0s.83.05,1.23.1l1.87.29c.55.1,1.07.26,1.61.39s1.3.26,2,.4a21,21,0,0,1,3.11.93,24.28,24.28,0,0,1,2.32,1.36c.75.49,1.51,1,2.22,1.48a7.7,7.7,0,0,1,1,1c.47.65.87,1.34,1.32,2s1.06,1.53,1.59,2.3,1,1.51,1.46,2.31.77,1.58,1.1,2.38a14.72,14.72,0,0,1,.72,2.34c.17.82.29,1.64.4,2.47a28.51,28.51,0,0,1-.05,6.33,22.89,22.89,0,0,1-1.41,4.72c-.29.61-.6,1.22-.93,1.81s-.75,1.36-1.16,2c-.8,1.28-1.58,2.57-2.44,3.79a14.26,14.26,0,0,1-1.8,1.76c-.73.53-1.47,1-2.19,1.57l.06,0c-.65.49-1.32,1-2,1.42a11.33,11.33,0,0,1-1.9,1,12,12,0,0,1-2.35.61c-1,.05-2.09-.06-3.12-.11s-2.15-.09-3.21-.22a11.66,11.66,0,0,1-2.08-.65c-.65-.3-1.28-.63-1.91-1a15.52,15.52,0,0,1-1.93-1.3,21.52,21.52,0,0,1-3.18-3.29,31.69,31.69,0,0,1-2-3c1-1.37,2.07-2.76,3.12-4.13a31.89,31.89,0,0,0,2.64-3.67c.77-1.29,1.34-2.68,2-4s1.41-2.69,2-4.07a27.12,27.12,0,0,0,1.63-4.35c.07-.25.13-.51.19-.77a1.52,1.52,0,0,0-1-1.86,1.34,1.34,0,0,0-.4-.06,1.48,1.48,0,0,0-1.46,1.08,18.3,18.3,0,0,1-.66,2.3c-.26.69-.53,1.37-.82,2.05-.89,2-2,3.84-2.87,5.79a26.38,26.38,0,0,1-1.61,3c-.55.87-1.18,1.69-1.81,2.5-.8,1-1.58,2-2.35,3.08C230.15,164.61,230.1,164.44,230.07,164.26ZM171.8,45.37a1.43,1.43,0,0,0,.26.72l-.18-.06-.44-.21,0,0,.08-.09ZM115,100.71c0-1,0-2.09,0-3.14a50.67,50.67,0,0,1,.4-6.15,48.75,48.75,0,0,1,1.1-4.75,38.7,38.7,0,0,1,1.61-4.45c1-2.15,2.13-4.24,3.26-6.33.55-1,1.18-2,1.82-2.9s1.35-2,2.05-2.91c.61-.76,1.26-1.48,1.93-2.19s1.62-1.59,2.45-2.36,1.71-1.55,2.57-2.32,1.52-1.32,2.31-1.93a42,42,0,0,1,4.42-2.52c1.48-.78,2.93-1.59,4.47-2.24a35.74,35.74,0,0,1,3.49-1c1.26-.32,2.53-.6,3.8-.92s2.45-.59,3.69-.82,2.47-.39,3.71-.54a22.37,22.37,0,0,1,2.44-.16h.06l.31,0h.1a2.24,2.24,0,0,1,.68-.06,4.71,4.71,0,0,0,.53,0h.19c.46,0,.92,0,1.38,0a7,7,0,0,1,.79,0h0a4.16,4.16,0,0,1,.79.09,23.45,23.45,0,0,1,2.9.13c.69.13,1.36.34,2.05.47s1.25.31,1.87.45c1.33.3,2.68.46,4,.79a31.73,31.73,0,0,1,4.48,1.37l2.14.86c.68.26,1.36.5,2,.78a14.18,14.18,0,0,1,2.57,1.53c.5.42,1,.86,1.47,1.29s1.26,1.08,1.92,1.59,1.57,1.21,2.36,1.82,1.45,1.21,2.13,1.85a16.76,16.76,0,0,1,1.71,2c.83,1.14,1.54,2.37,2.35,3.52l.33.46.12.16c.74,1,1.55,1.92,2.31,2.89A24.79,24.79,0,0,1,204.75,80l.27.68s0,.08,0,.13a1.21,1.21,0,0,0,.11.3c.26.7.52,1.41.73,2.12a29.92,29.92,0,0,1,.73,3c.42,2,.73,4.11,1,6.17.11,1.13.17,2.27.19,3.41s0,2.47-.07,3.7-.13,2.4-.28,3.59c-.13,1-.3,2.08-.46,3.12,0,0,0-.05,0-.08-.08.47-.15.94-.22,1.41,0-.13,0-.25,0-.38a24.89,24.89,0,0,1-1.12,4.56c-.52,1.43-1,2.88-1.63,4.28a20.86,20.86,0,0,1-1.13,2.27c-.46.73-1,1.42-1.48,2.09-.72.88-1.48,1.72-2.22,2.58s-1.44,1.84-2.16,2.76c-.47.59-1,1.18-1.47,1.74a13.87,13.87,0,0,1-1.8,1.62q-2,1.5-4,3.05c-1.2,1-2.32,2-3.53,3a16.75,16.75,0,0,1-1.54.9c-.49.25-1,.46-1.53.67-1.35.51-2.72,1-4.09,1.51a21.82,21.82,0,0,1-2.25.72c-.71.19-1.44.34-2.16.47-1.49.25-3,.45-4.45.72s-2.85.67-4.29.9l-.58.09c-1.15.11-2.3.15-3.45.15a22.34,22.34,0,0,1-3.66-.34c-2.39-.36-4.81-.52-7.2-.84-1.17-.21-2.31-.47-3.45-.76s-2.37-.62-3.54-1c-.63-.19-1.26-.4-1.88-.62s-1.16-.46-1.73-.7c-1.06-.44-2.13-.87-3.19-1.32-.68-.31-1.35-.63-2-1-.49-.27-1-.57-1.42-.87a1.57,1.57,0,0,0-.49-.44,1.27,1.27,0,0,0-.32-.13c-.68-.57-1.33-1.16-2-1.75-.81-.72-1.66-1.38-2.49-2.07s-1.65-1.43-2.46-2.17a18.83,18.83,0,0,1-2-2.24c-.56-.76-1.1-1.53-1.63-2.31s-1.12-1.55-1.64-2.35-1.09-1.72-1.58-2.62a25.41,25.41,0,0,1-1.17-2.54,50.41,50.41,0,0,1-1.94-5.87c-.47-1.92-.76-3.9-1-5.85C115.06,102.53,115,101.63,115,100.71Zm-.25,23.9c.46-.58.94-1.15,1.38-1.74s.72-1,1.07-1.52l.41-.6c.3.49.59,1,.91,1.44.91,1.31,1.82,2.62,2.75,3.91q.76,1.07,1.62,2.07a21.67,21.67,0,0,0,1.68,1.64c1.15,1.06,2.37,2,3.58,3,.59.47,1.14,1,1.71,1.49s1,.86,1.46,1.26a1.52,1.52,0,0,0,.46.45h0s0,0,0,0a3.5,3.5,0,0,1,.31.61l.06.15c.07.19.14.37.22.55l-.14-.35v0c.12.3.24.58.37.88l0,.09a.25.25,0,0,1,0,.07h0l0,.05a7.22,7.22,0,0,1,.33,1.21c0,.36,0,.72,0,1.08a12.3,12.3,0,0,1-.11,1.34l.06-.39-.12.77a21.94,21.94,0,0,1-.55,2.4c-.6-.51-1.19-1-1.76-1.56-1-.88-1.93-1.8-2.89-2.69s-1.88-1.76-2.86-2.61-2-1.77-3-2.67-1.93-1.78-2.87-2.69c-.48-.46-1-.92-1.47-1.35s-1-.85-1.56-1.27c-1-.8-2-1.63-2.89-2.49l.19-.35A18.12,18.12,0,0,1,114.74,124.61Zm-16.28-6.7a22.11,22.11,0,0,0,2.13,2.09c.75.66,1.52,1.3,2.31,1.93l-.13-.11c1,.82,2,1.65,3,2.53s1.81,1.76,2.68,2.67c.62.65,1.28,1.28,1.94,1.89l1.07,1,0,0c.85.74,1.71,1.47,2.58,2.18.5.4,1,.8,1.5,1.22s1,.92,1.47,1.39c1,.93,2,1.85,2.95,2.75s2,1.78,3.06,2.67,1.86,1.69,2.77,2.55,2,1.86,3,2.78,1.93,1.65,2.87,2.5,2.15,1.95,3.22,2.93,1.89,1.81,2.86,2.69,2.1,1.82,3.16,2.73,2,1.72,2.95,2.6,2,1.85,2.88,2.83c.41.43.8.87,1.23,1.28s1.14,1,1.73,1.53c1.15,1,2.32,1.9,3.46,2.88s2.22,2,3.28,3,2.2,2.13,3.36,3.15,2.44,1.93,3.67,2.88c.94.77,1.86,1.56,2.75,2.39s1.75,1.72,2.64,2.55c.25.23.51.44.76.66,0,.23-.07.45-.11.68a15.75,15.75,0,0,1-.8,2.67,4.79,4.79,0,0,1-.42.68l0,0q-.67-.57-1.35-1.11c-1.84-1.48-3.83-2.76-5.7-4.2-.68-.57-1.36-1.16-2-1.75s-1.58-1.43-2.43-2.09-1.47-1.09-2.2-1.63-1.55-1.18-2.32-1.77c-1-.77-1.9-1.57-2.81-2.41s-1.9-1.82-2.86-2.72c-2-1.83-4.06-3.52-6-5.35-1-.93-2-1.91-2.95-2.85s-2.05-1.94-3.09-2.91-2.07-1.85-3.08-2.78-1.95-1.85-2.94-2.75-2.13-1.89-3.19-2.84-2.08-1.93-3.11-2.9c-.48-.46-1-.91-1.44-1.37s-1-1-1.52-1.51c-.93-.9-1.83-1.84-2.77-2.73s-2-1.91-2.94-2.89-1.83-1.75-2.74-2.64-1.88-1.91-2.84-2.85-2-1.79-3-2.66a71.83,71.83,0,0,1-5.36-4.81c-.84-.86-1.68-1.72-2.57-2.53s-1.78-1.48-2.69-2.19l.06,0c-1.22-1-2.4-2-3.56-3.07-.89-.81-1.71-1.7-2.56-2.56.22-.29.41-.59.62-.89l.21-.16.56-.38a10.14,10.14,0,0,0,1.23.07,4.72,4.72,0,0,0,2.57-.47L94,113c.29.27.58.54.86.82.65.64,1.3,1.29,1.9,2S97.87,117.23,98.46,117.91ZM72.31,97.31c-.6-.71-1.32-1.32-1.91-2a19.62,19.62,0,0,1-1.2-1.9c-.14-.27-.26-.55-.42-.8s-.29-.48-.43-.72a1.46,1.46,0,0,0,0-.72c-.1-.51-.21-1-.29-1.52v-.07h.48a4.42,4.42,0,0,1,.48.15,7.89,7.89,0,0,0,.95.39l.23.12.23.14a3.09,3.09,0,0,0,.57.23,6.9,6.9,0,0,1,.79.54c.28.18.56.36.83.56l.83.65A11.41,11.41,0,0,1,75,93.83c.61.71,1.26,1.39,1.87,2.11s1.43,1.77,2.24,2.56c.54.52,1.1,1,1.67,1.48-.42.36-.84.72-1.27,1.07-.6.49-1.2,1-1.78,1.48l-.38.34c-.86-.92-1.74-1.82-2.59-2.75S73.1,98.26,72.31,97.31ZM93.6,141a27.07,27.07,0,0,1-3.52-1c-1.2-.41-2.41-.78-3.57-1.26s-2.28-1.14-3.4-1.77c-.59-.33-1.18-.67-1.76-1s-1.07-.71-1.59-1.1a16.91,16.91,0,0,1-1.86-1.83c-.53-.61-1-1.24-1.52-1.87-.65-.93-1.27-1.87-1.87-2.83A21.54,21.54,0,0,1,73,125.7a12.76,12.76,0,0,1-.55-1.92c-.14-.7-.25-1.41-.34-2.12a12.39,12.39,0,0,1-.06-2.58,18.1,18.1,0,0,1,.72-2.38q.42-1.17.9-2.31c.62-1.36,1.42-2.64,2.12-4,.27-.52.53-1,.79-1.58,0,.09,0,.18,0,.27.08.87.13,1.75.26,2.62a7,7,0,0,0,.78,2.3c.29.56.61,1.1,1,1.63a10,10,0,0,0,1.48,1.89,9.13,9.13,0,0,0,2.1,1.55,7.29,7.29,0,0,0,2.66.7,17.51,17.51,0,0,0,4-.19l.29,0a1.24,1.24,0,0,0,.27,0c1.16,1,2.37,2,3.6,3,1,.78,1.92,1.58,2.81,2.44s2,2,3,3c1.91,1.77,4,3.41,5.92,5.11.22.19.42.39.64.59-.15.22-.3.44-.44.66-.51.82-1,1.63-1.56,2.43-.83,1.22-1.7,2.41-2.49,3.65l-.17,0c-.84.18-1.68.36-2.53.49A21.92,21.92,0,0,1,93.6,141Zm3,14.19c.79-1.54,1.75-3,2.6-4.49.45-.78.87-1.57,1.25-2.39s.67-1.61,1-2.42c.18-.41.36-.81.53-1.22l0-.06a33.55,33.55,0,0,1,3.16-5.1c.53-.77,1.08-1.52,1.58-2.31.26-.41.53-.82.79-1.24.89.94,1.88,1.8,2.81,2.71s1.86,1.86,2.8,2.78,2,1.9,2.94,2.87l2.84,2.81c1,.95,2,1.87,3,2.8s2.19,2,3.29,2.94,2,1.85,3,2.8l.65.58c-.33.89-.65,1.78-.92,2.69-.38,1.27-.81,2.54-1.09,3.84s-.54,2.58-.86,3.86-.58,2.66-1,4c-.2.7-.44,1.39-.66,2.09s-.4,1.29-.62,1.92-.46,1.19-.69,1.78-.42,1.29-.62,1.94c-.35,1.1-.63,2.22-.9,3.35-.45-.14-.9-.33-1.34-.51l-1.09-.46c-1.28-.56-2.56-1.13-3.8-1.78-.63-.34-1.27-.68-1.89-1s-1.36-.83-2-1.25c-1.29-.82-2.65-1.5-4-2.26a34.61,34.61,0,0,1-3.78-2.59l0,0-.08-.06h0l-.59-.47c-1.08-.86-2.14-1.75-3.16-2.68a19.58,19.58,0,0,1-2.47-2.83c-.66-.9-1.31-1.79-2-2.66-.56-.7-1.14-1.38-1.7-2.08.18-.35.35-.7.53-1C95,158.45,95.77,156.81,96.6,155.21Zm6.84,21.45-.53-.67c-.25-.36-.46-.73-.68-1.1l0,0,.17-.21,1.07.78a1,1,0,0,0-.08.47C103.42,176.15,103.42,176.41,103.44,176.66Zm-12.71-8.82-.06.26,0,0A2.09,2.09,0,0,0,90.73,167.84ZM93,170l.06.07q-.25.48-.48,1l-.17-.21c-.11-.15-.2-.3-.31-.46A1.59,1.59,0,0,0,93,170Zm2.11,2.69a15.6,15.6,0,0,1,1.13-2.14c.16-.25.33-.49.5-.74l.38.42h0l0,.05c-.27.52-.53,1-.76,1.59-.07.18-.13.35-.19.53A1.49,1.49,0,0,0,95,173.73c-.17-.15-.34-.3-.49-.46A1.33,1.33,0,0,0,95.15,172.7Zm8.34,7v0l0,0Zm4.11,2.15a10.56,10.56,0,0,1,.28-1.21,7.55,7.55,0,0,1,.31-.87c.15-.32.3-.64.47-1a1.17,1.17,0,0,0,.06-.2l.56.33a19.44,19.44,0,0,0-1.12,3.16,1.59,1.59,0,0,0,0,.84c-.31-.16-.6-.34-.9-.52A1.31,1.31,0,0,0,107.6,181.83Zm11.62,6.8v0l0,.08,0,0Zm-9-4.76a.11.11,0,0,0,0,0l-.07,0Zm2,1v0l-.05,0ZM87.88,174.5c.46-1,.92-2,1.37-3.05.32.49.64,1,1,1.45s.93,1.14,1.42,1.7a13.69,13.69,0,0,0,1.61,1.62c.64.52,1.32,1,2,1.5s1.37,1.17,2.11,1.69,1.41.84,2.1,1.28,1.63,1.1,2.46,1.63a27.32,27.32,0,0,1,2.45,1.69,18.73,18.73,0,0,0,2.45,1.6c.82.45,1.67.81,2.52,1.19a25,25,0,0,1,2.54,1.38l1.25.81c.44.28.9.52,1.36.78.72.39,1.47.75,2.22,1.1.44.2.86.42,1.29.63-.1.3-.19.61-.29.91l-.6,2c-.19.66-.35,1.33-.55,2-.34,1.14-.78,2.25-1.22,3.36-.22.56-.41,1.12-.6,1.68l-.51-.2c-1.23-.57-2.38-1.27-3.62-1.82-.75-.33-1.52-.62-2.31-.88s-1.29-.43-1.92-.69c-1.12-.52-2.2-1.13-3.32-1.67-.61-.29-1.22-.58-1.8-.93s-1.16-.76-1.72-1.15-1-.7-1.54-1l-1.39-.76a27.33,27.33,0,0,1-2.91-1.95c-.36-.31-.72-.61-1.06-.93a5.21,5.21,0,0,1-.56-.59l-.16-.21a6.42,6.42,0,0,1-.42-.6,28.26,28.26,0,0,0-2.18-2.82c-.74-.85-1.5-1.65-2.19-2.54-.31-.42-.62-.83-.9-1.26a7.87,7.87,0,0,1-.63-1.18l0-.1c.21-.51.42-1,.61-1.54C86.73,177.22,87.29,175.86,87.88,174.5Zm-3.35,18.21a1.09,1.09,0,0,0,.14.38l-.29-.31ZM86,193.89a1.26,1.26,0,0,0,.38,0,1.47,1.47,0,0,0,.81.54c-.07.32-.14.64-.19,1l-.19-.13a16.72,16.72,0,0,1-1.58-1.57A1.4,1.4,0,0,0,86,193.89Zm3.88,2.31a2.36,2.36,0,0,1,0-.28,22.07,22.07,0,0,1,.66-2.51h0a5.48,5.48,0,0,1,.61-.56l.42-.29.06,0,.22.17-.17.21c-.25.32-.51.64-.75,1a7.51,7.51,0,0,0-.68,1.36,1.46,1.46,0,0,0,.13,1.14c-.14.3-.26.6-.38.91l-.26-.18-.16-.1A1.8,1.8,0,0,0,89.83,196.2Zm2.86,2.43c.07-.23.14-.45.22-.67.25-.51.52-1,.78-1.51a1.64,1.64,0,0,0,.06-1.37c.16-.21.32-.43.49-.64,0,0,0,0,0-.06l.54.35c.74.43,1.51.81,2.23,1.27.21.13.41.28.61.42a1.5,1.5,0,0,0-.61.19,1.84,1.84,0,0,0-.17-.22,1.54,1.54,0,0,0-1.09-.44,1.39,1.39,0,0,0-1,.42,11.14,11.14,0,0,0-1.93,2.35,1.06,1.06,0,0,0-.1.3l-.16-.1A1.51,1.51,0,0,0,92.69,198.63Zm9.1,4h0v0Zm9.2,6.07.14-.15-.09.18Zm-7.26-8.19a1.22,1.22,0,0,0-.38-.13,1.67,1.67,0,0,0,.32-.58l.27.14Zm-2.71-2,0,0-.11.14C101,198.6,101,198.55,101,198.49Zm-2.22,4.19a1.55,1.55,0,0,0,.07.23l-.25-.16Zm2.22,1a1.59,1.59,0,0,0,.7-.89.69.69,0,0,0,0-.13s0,0,0,0a1.42,1.42,0,0,0,.33.36c-.13.3-.25.61-.36.91a1.56,1.56,0,0,0-.06.47l-.28-.12-.87-.41A1.45,1.45,0,0,0,101,203.72Zm-17,1.27a11.17,11.17,0,0,1-1.15-2.12,13,13,0,0,1-.44-1.38,11.4,11.4,0,0,1-.27-1.53,29.44,29.44,0,0,1-.15-4.3c0-.3,0-.6.07-.9l.41.44a20.36,20.36,0,0,0,1.94,2,11.84,11.84,0,0,0,1.27,1c.35.24.73.43,1.1.64.72.42,1.39.9,2.07,1.37.9.61,1.8,1.18,2.74,1.71s2.1,1.29,3.14,1.94c.51.32,1,.64,1.52,1s1.09.75,1.66,1.09a31,31,0,0,0,3.64,1.72,22.38,22.38,0,0,1,2,1c.73.41,1.44.87,2.21,1.22,1.4.65,2.85,1.14,4.26,1.74l.4.19c-.15.25-.29.5-.46.73-.59.7-1.23,1.34-1.8,2.06l.24-.3c-.15.19-.31.38-.46.58l.18-.22-.52.66a3.35,3.35,0,0,1-.41.44,5.41,5.41,0,0,1-.86.45,6,6,0,0,1-1,.25l-.8.07c-.26,0-.52,0-.79,0l-.55,0a3.82,3.82,0,0,0-.59-.09h-.27l-.15,0a1.53,1.53,0,0,0-.36-.07l-.1,0-.76-.33c-1.31-.61-2.52-1.38-3.82-2-1.48-.72-3-1.27-4.53-1.92a14.12,14.12,0,0,1-2.77-1.66h0a.87.87,0,0,0-.21-.17c-1-.84-2-1.7-3-2.54A19.81,19.81,0,0,1,84.07,205Zm220.74,82.7a30.81,30.81,0,0,1-3.68,1.84l-.56.22c-1.29.49-2.6.95-3.93,1.33a21.94,21.94,0,0,1-2.27.52c-.6.1-1.21.17-1.81.24h0l-.12,0c-1.06.1-2.13.18-3.2.24s-2.23,0-3.35,0c-1.27,0-2.52-.14-3.78-.3l-3.29-.42-1.66-.27c-.67-.12-1.33-.28-2-.4l-1.89-.33c-.68-.13-1.34-.29-2-.47s-1.1-.34-1.64-.51l-2-.6c-1-.29-2-.67-3.06-1s-2.27-.75-3.41-1.1-2.35-.75-3.5-1.19c-1-.38-2-.81-3-1.15-1.19-.41-2.43-.66-3.64-1-.69-.18-1.39-.37-2.07-.58s-1.23-.42-1.83-.66l-3.33-1.32c-1.36-.5-2.73-.94-4.09-1.41s-2.43-1-3.63-1.48l-1.36-.58-1.79-.79-3.16-1.42-3.08-1.32c-1-.44-2-.9-3-1.34-.49-.21-1-.44-1.47-.64l-1.75-.73c-1.13-.54-2.15-1.29-3.24-1.91-.62-.34-1.26-.63-1.89-.93s-1.48-.7-2.21-1.07c-1.44-.74-2.81-1.61-4.24-2.36s-3.16-1.43-4.74-2.12c-1.19-.53-2.38-1.09-3.54-1.68s-2.42-1.29-3.66-1.88-2.37-1.06-3.55-1.61-2.44-1.21-3.65-1.85l-.45-.24a1.11,1.11,0,0,0-.27-.17,2,2,0,0,0-.31-.13c-.83-.43-1.66-.85-2.52-1.23-1.19-.54-2.4-1-3.63-1.44l-1.73-.61c-.71-.27-1.41-.59-2.11-.89a24.6,24.6,0,0,0-4.28-1.31c-1-.21-1.93-.41-2.9-.65s-2-.57-3-.85a21.67,21.67,0,0,0-3.48-.61l-2.81-.29a25.52,25.52,0,0,0-3-.16c-1.13,0-2.26.13-3.39.23a35.18,35.18,0,0,0-3.53.36,9.91,9.91,0,0,0-1.62.43c-.51.17-1,.38-1.51.58-1.1.42-2.24.75-3.35,1.15a1.64,1.64,0,0,0-.93.68,1.56,1.56,0,0,0-.17,1.14,1.53,1.53,0,0,0,.69.92,1.4,1.4,0,0,0,1.13.17c.77-.27,1.53-.54,2.31-.78s1.46-.52,2.18-.82c.37-.14.74-.26,1.12-.37a10.06,10.06,0,0,1,1.53-.29c1-.1,2-.16,2.92-.25a26.88,26.88,0,0,1,3.59-.14c.95,0,1.91.13,2.85.23s1.95.19,2.91.33c.73.12,1.43.28,2.14.47s1.59.5,2.39.7c1.64.41,3.32.68,4.94,1.15l.44.13-.61,0c-.89.05-1.77.15-2.65.26-1.14.12-2.27.26-3.4.44a16.7,16.7,0,0,0-3.05.72c-1,.36-2,.74-3,1.07a15.68,15.68,0,0,0-3.08,1.22l-1.13.68c-.42.25-.87.47-1.32.68-.84.4-1.66.82-2.48,1.25-.4.22-.8.44-1.21.63s-.94.44-1.39.69a18.66,18.66,0,0,0-2.88,2.21l-.22.18c-.61.44-1.24.84-1.84,1.29s-1.22,1-1.84,1.48-1.48,1-2.21,1.57-1.5,1.17-2.25,1.75-1.36.88-2,1.35c-.37.26-.73.51-1.11.75a7.71,7.71,0,0,1-1.16.55l-1.67.61c-.78.29-1.53.63-2.29,1s-1.39.55-2.06.86-1.26.61-1.9.88a15,15,0,0,1-2.08.6c-.74.16-1.5.28-2.24.41-1.25.21-2.46.54-3.71.72s-2.29,0-3.43,0a30.74,30.74,0,0,1-3.18-.26,26.68,26.68,0,0,1-5.82-1.79l-1-.42-.11-.05-.33-.14-1-.47c-.6-.28-1.19-.59-1.77-.92-1.22-.67-2.42-1.39-3.59-2.13s-2.48-1.62-3.66-2.52a9.64,9.64,0,0,1-1.36-1.35c-.25-.36-.49-.72-.72-1.1s-.5-.95-.75-1.42c-.55-1-1.1-2.08-1.63-3.14s-1-2.25-1.54-3.39-.91-2.16-1.36-3.23a32.57,32.57,0,0,1-1.54-6.13c-.36-2.07-.75-4.14-1-6.22-.12-1.2-.2-2.41-.21-3.62,0-1.39,0-2.8,0-4.2,0-2.71,0-5.43.07-8.15,0-1.34.16-2.69.21-4s.18-2.63.35-3.95q.34-2.67.71-5.35a9.93,9.93,0,0,0,.93.67,35.5,35.5,0,0,0,5.54,2.52q1.26.56,2.46,1.23c.39.22.78.44,1.18.65a1.17,1.17,0,0,0,.45.4,12.24,12.24,0,0,0,1.22.55,2.94,2.94,0,0,0,.78.17l.71.13-.38-.06c.31.07.62.15.94.19l.42,0a6.64,6.64,0,0,0,1,.1,11,11,0,0,0,1.62-.08l-.4,0a13.57,13.57,0,0,0,1.81-.23,8.54,8.54,0,0,0,1.46-.54,5.4,5.4,0,0,0,1.25-.82,6.37,6.37,0,0,0,1-1.16l.33-.42c.5-.61,1.06-1.14,1.55-1.75a12.5,12.5,0,0,0,1.71-2.91c.41-.95.79-1.91,1.19-2.86.23-.56.41-1.14.62-1.71s.4-1.06.62-1.58.56-1.25.79-1.89.43-1.24.64-1.86c.37-1.07.8-2.11,1.21-3.16.47-1.25.76-2.56,1.14-3.84a33.93,33.93,0,0,1,1.17-3.53c.28-.63.58-1.26.85-1.9s.52-1.3.77-2a27.86,27.86,0,0,0,1.29-4c.3-1.35.62-2.68,1-4,.2-.66.4-1.33.63-2s.47-1.16.68-1.75c.47-1.31.87-2.65,1.28-4s.65-2.64,1-4,.6-2.6.88-3.91.7-2.55,1.07-3.83c.15-.5.32-1,.5-1.49,1,.92,2,1.89,3,2.83,2,1.86,3.89,3.79,5.94,5.58,1.24,1.09,2.5,2.15,3.71,3.27s2.28,2.18,3.44,3.25,2.58,2.24,3.94,3.28,2.59,1.91,3.87,2.89c1.6,1.35,3.12,2.8,4.76,4.09a.71.71,0,0,1,.14.1.22.22,0,0,1,0,.08V184h0c-.08.36-.19.7-.28,1a5.69,5.69,0,0,0,0,2.36,10.13,10.13,0,0,0,.44,1.45,16.26,16.26,0,0,0,.76,1.94,15.55,15.55,0,0,0,2.15,3.48,6.82,6.82,0,0,0,1.41,1.27,11.24,11.24,0,0,0,1.83.93c.56.26,1.1.54,1.64.84.28.15.57.3.87.43a4.39,4.39,0,0,0,.66.29,4.76,4.76,0,0,0,.53.19,14.38,14.38,0,0,0,1.68.45,18.82,18.82,0,0,0,4.37.26c.93,0,1.85-.1,2.77-.18.67.63,1.34,1.25,2,1.84,1.63,1.37,3.39,2.58,5.06,3.89s3,2.54,4.55,3.72L193,210c0,.56,0,1.12-.07,1.68s-.08,1.4-.13,2.11-.06,1.39-.11,2.09-.08,1.43-.08,2.15-.07,1.39-.09,2.09,0,1.38,0,2.08,0,1.14,0,1.7a19.66,19.66,0,0,0,.24,2,12,12,0,0,0,.37,1.55,9.58,9.58,0,0,0,.58,1.49,5.62,5.62,0,0,0,.85,1.21l.17.17a9,9,0,0,0,.7.68,8,8,0,0,0,1.18.9l1,.52.56.25a7.81,7.81,0,0,0,.81.29,8.36,8.36,0,0,0,.81.25c.66.12,1.3.32,2,.42l.79.12c.37.06.73.11,1.1.15h-.06A10.57,10.57,0,0,0,205,234h.63l.62.08.89.15c.24,0,.48,0,.72.07a5.79,5.79,0,0,0,.72,0c.29,0,.58,0,.87.08a20.92,20.92,0,0,0,2.09.12h1c.29,0,.58,0,.88,0a23,23,0,0,0,3-.15l-.4.05a12.62,12.62,0,0,1,1.51-.08c.56,0,1.12-.07,1.68-.13l-.4.05a9.65,9.65,0,0,1,1.32-.06,14.32,14.32,0,0,0,1.45-.1l.55,0h2.3c.78.48,1.57,1,2.34,1.48,1.15.76,2.23,1.64,3.33,2.47,2.27,1.72,4.61,3.35,7,5,1.14.79,2.27,1.6,3.42,2.38.54.38,1.12.71,1.69,1.07s1.29.79,1.94,1.17a45.69,45.69,0,0,1,4.31,2.83l0,0c1,.83,2.11,1.63,3.24,2.36s2.3,1.4,3.48,2.08,2.31,1.34,3.45,2,2.32,1.47,3.51,2.18,2.2,1.28,3.28,2,2.17,1.44,3.24,2.18l1.59,1.09c.59.39,1.21.73,1.82,1.08,1.19.66,2.44,1.2,3.65,1.84a31,31,0,0,1,3.3,1.91c1.08.75,2.13,1.56,3.24,2.28s2.29,1.42,3.47,2.07,2.26,1.21,3.38,1.82c.54.3,1.08.62,1.63.92s1.14.6,1.71.89c1.13.57,2.29,1.07,3.42,1.65a28,28,0,0,1,3.33,2c1.09.75,2.12,1.57,3.27,2.23,1,.57,2.07,1.05,3.12,1.52.85.38,1.7.77,2.54,1.17C307,286.47,305.88,287.07,304.81,287.69ZM195.46,221c0-.28,0-.56,0-.84a1.42,1.42,0,0,0,.53.31l-.42.75-.14.28Zm9.83-1.37c-.4.33-.8.65-1.17,1a1.88,1.88,0,0,0-.16-.23,1.49,1.49,0,0,0,1-1.25l.14.1.33.29ZM202,219a1.52,1.52,0,0,0,.32.86,2.05,2.05,0,0,0-.56.33,5.93,5.93,0,0,0-.44.43,1.09,1.09,0,0,0,0-.18c.1-.15.2-.31.31-.46a1.38,1.38,0,0,0,.18-1Zm6.24,5.35a1.77,1.77,0,0,0,.16.22h-.29A2.39,2.39,0,0,1,208.22,224.39ZM198.69,219s0,0-.05-.05l-.14-.06.25,0Zm15.56,12c-1.16-.06-2.32-.06-3.47-.08s-2.3-.08-3.44-.14l-1.65-.08-.58-.12c-.44-.09-.87-.08-1.31-.15l.24,0-.55-.07-.51-.13c-.36-.07-.71-.1-1.07-.15A4.38,4.38,0,0,0,201,230c-.12,0-.24,0-.35,0l-.43-.1a6.4,6.4,0,0,0-.89-.2l.39.07a8.33,8.33,0,0,1-1.37-.42l-.48-.22.23.1a3.58,3.58,0,0,1-.49-.3l-.43-.32-.12-.09-.13-.1,0,0-.14-.11a3.71,3.71,0,0,1-.27-.29,5.63,5.63,0,0,1-.38-.68H197c1.11,0,2.23.1,3.34.18,2.17.16,4.36.15,6.54.15,1,0,2.06.08,3.09.12s2.18.05,3.28,0c.86-.05,1.72-.07,2.58-.09l.88.62c1,.86,2,1.79,3,2.67.1.09.22.17.33.26C218.15,231.13,216.2,231.09,214.25,231Zm-3.33-6.27-.4,0a1.51,1.51,0,0,0,.32-.43l.67.45ZM199.61,216c-1-.06-2.08-.18-3.13-.26l-.82-.07c.06-1,.13-2.06.18-3.1l0-.27,1.72,1.46a29.82,29.82,0,0,0,2.48,2l.37.25Zm120.68,72.67c-.84-.5-1.71-.94-2.59-1.38s-1.71-.82-2.58-1.2c-2.2-1-4.26-2.25-6.45-3.26l-3.59-1.66a22.76,22.76,0,0,1-3.34-2c-.54-.39-1.07-.81-1.64-1.17s-1.07-.66-1.63-1-1.14-.65-1.73-.93l-1.95-.92c-1.07-.52-2.14-1.06-3.17-1.64s-2.23-1.25-3.35-1.84-2.35-1.25-3.47-2-2.3-1.48-3.4-2.3a26.85,26.85,0,0,0-3.09-2c-1.2-.65-2.4-1.27-3.62-1.86a29.55,29.55,0,0,1-3.54-2c-1-.73-2.11-1.45-3.17-2.17s-2.29-1.48-3.48-2.16-2.19-1.31-3.26-2c-1.77-1.12-3.56-2.18-5.38-3.21a44.5,44.5,0,0,1-5.26-3.45c-.5-.4-1-.79-1.52-1.16s-1.22-.82-1.84-1.21c-1.18-.75-2.39-1.43-3.58-2.18s-2.47-1.57-3.67-2.42l-3.4-2.39c-1.11-.77-2.2-1.55-3.3-2.34s-2.21-1.67-3.33-2.51c-.56-.41-1.12-.83-1.7-1.24s-1.2-.76-1.8-1.14c-1.13-.7-2.27-1.39-3.33-2.18l-.45-.33c-.83-.67-1.61-1.38-2.4-2.09a31.53,31.53,0,0,0-2.78-2.26c-1.68-1.22-3.5-2.24-5.2-3.44-1.78-1.48-3.39-3.15-5.2-4.59a35.79,35.79,0,0,0-3-2.2c-1-.64-2-1.28-2.9-2-1.6-1.33-3.15-2.74-4.8-4s-3.33-2.52-5-3.8c-1.25-1-2.47-2.1-3.74-3.1s-2.61-2-3.9-3l-1-.82a14.25,14.25,0,0,0,1.94-.53c.86-.31,1.7-.69,2.53-1.06l.85.74c.84.75,1.69,1.48,2.56,2.2,1.75,1.44,3.62,2.72,5.46,4,1.68,1.21,3.29,2.54,5,3.75s3.55,2.58,5.28,3.92c.79.64,1.56,1.31,2.36,1.94.54.42,1.08.82,1.64,1.22.41.3.85.57,1.28.85.88.57,1.79,1.11,2.65,1.7s1.72,1.21,2.54,1.86c1,.85,2,1.74,3,2.62.57.5,1.2.95,1.82,1.41s1.13.8,1.71,1.18c1.13.75,2.27,1.46,3.39,2.23s2.2,1.56,3.29,2.36c2.38,1.74,4.87,3.29,7.32,4.93,1.15.78,2.26,1.61,3.42,2.37s2.39,1.5,3.57,2.27,2.31,1.55,3.43,2.38a36.85,36.85,0,0,0,3.3,2.52c1.15.75,2.32,1.46,3.53,2.11s2.47,1.35,3.66,2.1,2.46,1.56,3.68,2.34c2.36,1.5,4.75,3,7.12,4.44.57.37,1.14.74,1.72,1.09s1.28.72,1.93,1.07c1.26.67,2.55,1.26,3.8,1.95a39.94,39.94,0,0,1,3.5,2.24c1.18.81,2.37,1.6,3.6,2.33s2.47,1.42,3.73,2.07,2.34,1.29,3.5,2,2.26,1.3,3.43,1.88c.58.29,1.17.55,1.74.85s1.29.69,1.92,1.05c1.24.71,2.43,1.51,3.64,2.27s2.51,1.39,3.78,2.07,2.41,1.27,3.6,2l3.51,2.05c1.12.66,2.26,1.27,3.4,1.88s2.24,1.23,3.36,1.86,2.12,1.22,3.22,1.77,2.43,1.12,3.64,1.66,2.26,1,3.34,1.63c.47.25.91.53,1.37.78s.95.48,1.43.73c1.57.84,3.17,1.61,4.73,2.46,1.07.59,2.12,1.2,3.17,1.83a1.41,1.41,0,0,0,.71.2l.09.12c0,.22,0,.43,0,.65h0l-.05.09a3.09,3.09,0,0,0-.14.32c-.09.16-.21.32-.3.48s-.23.37-.35.54l-.1.09-.28.16-.44.11a10.69,10.69,0,0,1-1.79-.1c-.34-.07-.68-.16-1-.25s-.87-.21-1.29-.36c-.67-.23-1.31-.48-2-.75s-1.08-.54-1.62-.81c-.79-.38-1.6-.72-2.42-1s-1.58-.62-2.37-.93-1.65-.64-2.46-1h0l0,0h0a14.1,14.1,0,0,1-1.83-1C321.76,289.57,321,289.09,320.29,288.65Zm19.5,7.53.07-.05h0Zm.07-.05,0,0,0,0Zm25.89,25.52c-.43.65-.86,1.29-1.31,1.93s-.89,1.19-1.35,1.77a21.22,21.22,0,0,1-1.72,1.95,20.49,20.49,0,0,1-2.19,1.86,15.11,15.11,0,0,1-1.41.95,16.17,16.17,0,0,1-1.79.83c-1.18.5-2.36,1-3.52,1.52s-2.11.9-3.17,1.34-2,.88-3,1.29a13.7,13.7,0,0,1-1.68.54l-1.74.38c-1.18.24-2.36.48-3.55.63-.71.06-1.42.09-2.14.14s-1.46.14-2.19.2c-1.41.12-2.82.13-4.24.14l-2.3,0c-.71,0-1.41-.08-2.12-.14l-2-.12c-.74-.06-1.49-.15-2.22-.24H322a22.69,22.69,0,0,0-2.48-.3c-.47,0-.94,0-1.41-.09s-1.07-.12-1.62-.16-.85,0-1.28-.08-1-.11-1.46-.16l-.46-.05a1.54,1.54,0,0,0-.31,0h0l-1.39-.2c-.7-.11-1.4-.25-2.11-.32s-1.47-.1-2.2-.12-1.5,0-2.24,0-1.7.17-2.54.3c-1.42.21-2.84.55-4.24.89-.67.17-1.35.32-2,.48s-1.44.35-2.18.46l-.37.05c-.49,0-1,.06-1.5.08l.11-.06a6.93,6.93,0,0,0,.9-.63,2,2,0,0,1,.25-.18,2.23,2.23,0,0,0,1.36-.74l.76-.26c.95-.34,1.89-.73,2.82-1.11a1.44,1.44,0,0,0,.71-.89,1.51,1.51,0,0,0-1-1.86,1.33,1.33,0,0,0-.38-.05,2,2,0,0,0-.78.18l-1,.4c-1.28.49-2.59.88-3.86,1.4l0,0h-2a24.34,24.34,0,0,1-3.08-.15,14.78,14.78,0,0,0-1.61-.21c-.45,0-.89-.08-1.34-.15a11.52,11.52,0,0,0-1.18-.14c-.42,0-.83-.07-1.24-.12-.7-.12-1.39-.27-2.09-.37s-1.37-.21-2.05-.26a30,30,0,0,0-4,.07c-.7.05-1.41.12-2.12.15s-1.39,0-2.09,0-1.36,0-2-.06c.42-.09.84-.14,1.26-.21,1-.16,2-.39,3-.59,2-.41,3.93-.81,5.92-1,1.33-.12,2.67-.1,4-.1h4c1.43,0,2.85.06,4.28.12a13,13,0,0,0,2.07-.06c.74-.08,1.47-.18,2.21-.27s1.39-.13,2.09-.17a16.87,16.87,0,0,0,2.55-.29c.79-.15,1.57-.33,2.35-.49.33-.08.66-.14,1-.24s.68-.24,1-.34a31.36,31.36,0,0,0,4.27-1.9,17.72,17.72,0,0,0,3.51-2.14c.38-.32.7-.71,1.06-1.05s.74-.7,1.14-1c1-.72,2-1.36,3.08-2a1.52,1.52,0,0,0,.57-2,1.55,1.55,0,0,0-1.33-.77,1.3,1.3,0,0,0-.71.2,39.81,39.81,0,0,0-3.62,2.4,17.6,17.6,0,0,0-1.44,1.3c-.37.37-.72.74-1.13,1.08s-.76.45-1.15.66-1,.55-1.51.8-.78.39-1.17.58a4,4,0,0,0-.34-.47,3.39,3.39,0,0,0-.64-.49c-.13-.09-.27-.16-.4-.24a16.52,16.52,0,0,0-2.1-1.06,7.1,7.1,0,0,0-2.58-.43h-2.08c-1.42,0-2.84,0-4.26.09-.69,0-1.39.09-2.08.14s-1.41.06-2.12.05a35.32,35.32,0,0,1-4.6-.18c-.74-.13-1.48-.29-2.23-.42-.59-.11-1.19-.21-1.78-.34l1-.2c.5-.08,1-.18,1.5-.28l.65-.14c.29-.07.59-.1.88-.18a19.92,19.92,0,0,0,2.13-.89c.43-.18.83-.4,1.25-.59a9,9,0,0,1,1.61-.4c.75-.12,1.5-.21,2.25-.38,1.28-.3,2.57-.51,3.87-.74.65-.12,1.29-.27,1.92-.42s1.4-.28,2.1-.37,1.28-.21,1.93-.31,1.22-.16,1.83-.22c.8-.09,1.59-.18,2.37-.34s1.48-.3,2.21-.47,1.38-.33,2.06-.55l1.94-.65a31,31,0,0,1,4.3-.8,12.34,12.34,0,0,0,2.51-.91c.67-.29,1.33-.61,2-.95.45-.23.91-.46,1.34-.72s.92-.55,1.4-.78a10.57,10.57,0,0,0,1.42-.73c.58-.39,1.09-.82,1.63-1.26s.76-.71,1.12-1.07a14.05,14.05,0,0,0,1.2-1.24,7.26,7.26,0,0,0,1.29-4.08,1.5,1.5,0,0,0-1.46-1.54h0a1.53,1.53,0,0,0-1,.43,1.59,1.59,0,0,0-.45,1c0,.29-.06.57-.1.86a6.36,6.36,0,0,1-.27,1,2.48,2.48,0,0,1-.18.31c-.23.27-.49.52-.75.77-.08-1-.1-2.06-.11-3.09a27.62,27.62,0,0,1,.13-3.64,13.16,13.16,0,0,1,.81-2.73c.05-.11.12-.22.17-.33l.53.21c1.1.43,2.22.85,3.32,1.3s1.94,1,2.93,1.4a20.89,20.89,0,0,0,3.18,1.08l.12,0c-.11.29-.22.59-.34.88l.09-.2c-.13.3-.25.59-.35.9s-.16.59-.25.88c-.26.77-.49,1.55-.72,2.32a1.5,1.5,0,1,0,2.88.85c.22-.75.43-1.5.68-2.24.19-.53.31-1.08.52-1.6v0a12.14,12.14,0,0,0,.45-1.19l.09-.19h0l-.09.22a1.47,1.47,0,0,1,.1-.22h.11a5.49,5.49,0,0,0,1.14-.1c.07.12.12.25.2.36a5.76,5.76,0,0,0,.42.53,8.62,8.62,0,0,0,.83,1.06c.43.45.84.91,1.29,1.33a1.5,1.5,0,1,0,2.14-2.09c-.33-.32-.64-.65-.95-1s-.47-.49-.69-.76l-.14-.21c-.11-.15-.22-.28-.34-.42l-.24-.4c.15-.22.3-.43.45-.66a5.37,5.37,0,0,0,.52-.94v0a10.43,10.43,0,0,0,1.12-.17,4.1,4.1,0,0,1,.49,0l.47.09a1.61,1.61,0,0,0,1.16-.13,1.55,1.55,0,0,0,.7-.89,1.47,1.47,0,0,0-.13-1.16,1.45,1.45,0,0,0-.89-.7,9.41,9.41,0,0,0-1.58-.23h-.06a5.93,5.93,0,0,0-1,.13,2.74,2.74,0,0,0-.43-.81l0,0a1.14,1.14,0,0,0-.25-.33,1.54,1.54,0,0,0-.27-.33h0l0,0a2.69,2.69,0,0,0-.26-.33l0,0,.34-.51c.25-.37.45-.76.71-1.12a9.28,9.28,0,0,1,.95-.93,1.51,1.51,0,0,0,0-2.12,1.42,1.42,0,0,0-1-.44,1.62,1.62,0,0,0-1.08.42,8.11,8.11,0,0,0-1.75,2c-.29.49-.62,1-.94,1.44l0,0,0,.06c-.79-.45-1.58-.89-2.39-1.3l-1.47-.77c-.51-.26-1-.5-1.53-.77l-1.56-.82,1.08-.86.28-.21a12.7,12.7,0,0,1,2.27-1.35,19,19,0,0,1,2.79-.8c1-.23,2-.42,3.07-.55a7.12,7.12,0,0,1,1-.06,9.61,9.61,0,0,1,1.07.07,21.71,21.71,0,0,1,2.27.62c.89.27,1.79.5,2.69.75s1.72.46,2.57.76,1.48.55,2.21.85c.48.21,1,.44,1.43.69a10.66,10.66,0,0,1,1.34.88c.68.58,1.32,1.21,2,1.81s1.4,1.26,2.09,1.9a38.33,38.33,0,0,1,4.09,4.17,15,15,0,0,1,.86,1.37c.24.46.43.94.62,1.41.27.69.49,1.38.73,2.07s.57,1.61.8,2.43a30.77,30.77,0,0,1,.9,4.57c.12,1.23.16,2.46.18,3.69a24.58,24.58,0,0,1-.15,3.74,13.49,13.49,0,0,1-.73,2.72l-.1.25a5.22,5.22,0,0,0-.24.54A28,28,0,0,1,365.75,321.65Z"></path> <path d="M201.42,347.85h0Z"></path> <path d="M113.31,341.17h-.11a1.52,1.52,0,0,0-1,2.56,1.64,1.64,0,0,0,1,.45,7.6,7.6,0,0,0,1.43,0,1.55,1.55,0,0,0,1.08-.43,1.49,1.49,0,0,0,.46-1,1.52,1.52,0,0,0-1.47-1.54A7.6,7.6,0,0,1,113.31,341.17Z"></path> <path d="M103.59,171.81l0,0,0,0Z"></path> <path d="M299.72,200.2l-.11.08a.24.24,0,0,0-.08.06Z"></path> </g> </g> </svg> 