<?xml version="1.0" encoding="UTF-8"?> <svg xmlns="http://www.w3.org/2000/svg" viewBox="0 0 529.05 14.36"> <defs> <style>.cls-1{fill:#b7def9;}</style> </defs> <title>Asset 2</title> <g id="Layer_2" data-name="Layer 2"> <g id="Слой_3" data-name="Слой 3"> <path class="cls-1" d="M189.67,14.36H0L1.34,1.74c.38,0,38.22,1.48,63.65,0C90.58.28,154-.42,165.63,1a184.64,184.64,0,0,0,30.82,1.43,24,24,0,0,0,3.6-.26c3.43-.68,5.16-1,35.35-.77C264,1.62,276.34,1,284.52.58c4-.2,7.16-.36,10.8-.37H314.8c6.73,0,13.23,0,17.49,0h5.21c11.57-.05,33.1-.12,55.61,0,12.43.07,19.43,0,25.61-.11,6.88-.1,12.32-.18,22,0,7.55.17,13.7.44,19.13.67,7.64.34,13.67.6,20.63.47,5.92-.11,11.94.26,17.24.59,3,.19,7,.43,9.05.41,6.64-2.28,12.27-.92,14.89-.65l7.35-.7V14.36H189.67Z"></path> </g> </g> </svg> 