<?xml version="1.0" encoding="UTF-8"?> <svg xmlns="http://www.w3.org/2000/svg" viewBox="0 0 581.84 7.18"> <defs> <style>.cls-1{fill:#1467a3;}</style> </defs> <title>Asset 9</title> <g id="Layer_2" data-name="Layer 2"> <g id="Слой_3" data-name="Слой 3"> <path class="cls-1" d="M208.6,0H0L1.47,6.31c.42,0,42-.74,70,0,28.15.74,97.92,1.09,110.69.38,12.54-.69,23-.91,33.89-.71,3.13.06,3.69.11,4,.13,3.78.34,5.67.51,38.88.39,31.43-.12,45,.19,54,.4,4.4.1,7.87.18,11.88.18h46.39c12.72,0,36.4.06,61.15,0,13.67,0,21.38,0,28.18,0,7.56,0,13.54.09,24.24,0,8.3-.08,15.06-.22,21-.34,8.4-.16,15-.3,22.69-.23,6.51,0,13.13-.13,19-.3,3.33-.09,7.69-.21,10-.2a72.88,72.88,0,0,0,16.38.33l8.08.34V0H208.6Z"></path> </g> </g> </svg> 