<?xml version="1.0" encoding="UTF-8"?> <!-- Generator: Adobe Illustrator 21.1.0, SVG Export Plug-In . SVG Version: 6.00 Build 0) --> <svg xmlns="http://www.w3.org/2000/svg" xmlns:xlink="http://www.w3.org/1999/xlink" baseProfile="tiny" id="Слой_1" x="0px" y="0px" viewBox="0 0 500 76.4" overflow="scroll" xml:space="preserve"> <g> <rect fill="#F0D023" width="159.5" height="76.4"></rect> <g> <path fill="#FFFFFF" d="M50.6,27.1H39.3v29.2H28.5V27.1H17.2v-9.4h33.4V27.1z"></path> <path fill="#FFFFFF" d="M73.1,36.2c-2,0-3.9,0.2-5.5,0.7c-1.7,0.4-2.9,1.2-3.7,2.2v17.2H53.4V27.2H63v5.5c1-2,2.3-3.5,3.8-4.5 c1.5-1.1,3.2-1.6,4.9-1.6c0.7,0,1.1,0,1.3,0.1V36.2z"></path> <path fill="#FFFFFF" d="M85.9,56.8c-2.9,0-5.2-0.9-6.7-2.7c-1.5-1.8-2.3-4.4-2.3-7.8V27.2h10.5V44c0,1.3,0.3,2.3,0.9,3 c0.6,0.7,1.4,1,2.3,1c0.8,0,1.6-0.2,2.5-0.6c0.8-0.4,1.7-1.2,2.5-2.4V27.2h10.5v17.5c0,1,0.1,1.7,0.4,2.1c0.3,0.4,0.8,0.6,1.5,0.7 v8.8c-1.8,0.4-3.3,0.6-4.4,0.6c-3.6,0-5.6-1.3-6.2-4l-0.2-1c-1.4,1.8-3,3.1-4.9,3.9C90.5,56.4,88.3,56.8,85.9,56.8z"></path> <path fill="#FFFFFF" d="M126.7,56.8c-2.5,0-4.8-0.4-6.8-1.2c-2-0.8-3.7-1.9-5-3.2c-1.3-1.4-2.4-2.9-3.1-4.7 c-0.7-1.8-1.1-3.6-1.1-5.6c0-2.1,0.3-4.1,1-6c0.7-1.9,1.7-3.5,3-4.9c1.3-1.4,3-2.5,5-3.3c2-0.8,4.3-1.2,6.9-1.2 c2.6,0,4.9,0.4,6.9,1.2c2,0.8,3.7,1.9,5,3.3c1.3,1.4,2.4,3,3,4.8c0.7,1.8,1,3.7,1,5.7c0,0.6,0,1.1-0.1,1.7 c-0.1,0.6-0.1,1.1-0.2,1.5h-20.4c0.1,1.5,0.7,2.7,1.7,3.3c1,0.7,2.2,1,3.4,1c1.1,0,2.2-0.3,3.2-0.8c1-0.5,1.6-1.3,1.9-1.9l9,2.3 c-1.2,2.3-3,4.2-5.4,5.7C133.3,56.1,130.3,56.8,126.7,56.8z M131.3,38.6c-0.2-1.4-0.7-2.5-1.5-3.3c-0.8-0.8-1.9-1.2-3.3-1.2 s-2.4,0.4-3.3,1.2c-0.8,0.8-1.4,1.9-1.5,3.3H131.3z"></path> </g> <g> <path fill="#24231D" d="M342.7,56.8c-2.5,0-4.8-0.4-6.8-1.2c-2-0.8-3.7-1.9-5-3.2c-1.3-1.4-2.4-2.9-3.1-4.7 c-0.7-1.8-1.1-3.6-1.1-5.6c0-2.1,0.3-4.1,1-6c0.7-1.9,1.7-3.5,3-4.9c1.3-1.4,3-2.5,5-3.3c2-0.8,4.3-1.2,6.9-1.2 c2.6,0,4.9,0.4,6.9,1.2c2,0.8,3.7,1.9,5,3.3c1.3,1.4,2.4,3,3,4.8c0.7,1.8,1,3.7,1,5.7c0,0.6,0,1.1-0.1,1.7 c-0.1,0.6-0.1,1.1-0.2,1.5h-20.4c0.1,1.5,0.7,2.7,1.7,3.3c1,0.7,2.2,1,3.4,1c1.1,0,2.2-0.3,3.2-0.8c1-0.5,1.6-1.3,1.9-1.9l9,2.3 c-1.2,2.3-3,4.2-5.4,5.7C349.3,56.1,346.2,56.8,342.7,56.8z M347.3,38.6c-0.2-1.4-0.7-2.5-1.5-3.3c-0.8-0.8-1.9-1.2-3.3-1.2 c-1.3,0-2.4,0.4-3.3,1.2c-0.8,0.8-1.4,1.9-1.5,3.3H347.3z"></path> <path fill="#24231D" d="M377.4,56.8c-2.5,0-4.8-0.4-6.8-1.2c-2-0.8-3.7-1.9-5-3.2c-1.3-1.4-2.4-2.9-3.1-4.7 c-0.7-1.8-1.1-3.6-1.1-5.6c0-2.1,0.3-4.1,1-6c0.7-1.9,1.7-3.5,3-4.9c1.3-1.4,3-2.5,5-3.3c2-0.8,4.3-1.2,6.9-1.2 c2.6,0,4.9,0.4,6.9,1.2c2,0.8,3.7,1.9,5,3.3c1.3,1.4,2.4,3,3,4.8c0.7,1.8,1,3.7,1,5.7c0,0.6,0,1.1-0.1,1.7 c-0.1,0.6-0.1,1.1-0.2,1.5h-20.4c0.1,1.5,0.7,2.7,1.7,3.3c1,0.7,2.2,1,3.4,1c1.1,0,2.2-0.3,3.2-0.8c1-0.5,1.6-1.3,1.9-1.9l9,2.3 c-1.2,2.3-3,4.2-5.4,5.7C384,56.1,381,56.8,377.4,56.8z M382,38.6c-0.2-1.4-0.7-2.5-1.5-3.3c-0.8-0.8-1.9-1.2-3.3-1.2 c-1.3,0-2.4,0.4-3.3,1.2c-0.8,0.8-1.4,1.9-1.5,3.3H382z"></path> <path fill="#24231D" d="M204.6,46.9v9.4h-28V17.7h27.5v9.4h-16.7v5.2h14.3V41h-14.3v5.8H204.6z"></path> <path fill="#24231D" d="M238.5,56.3H228V39.9c0-1.4-0.3-2.5-1-3.1c-0.6-0.6-1.4-1-2.2-1c-0.9,0-1.8,0.4-2.8,1.2 c-1,0.8-1.7,1.8-2.2,3v16.3h-10.5V27.2h9.5v4.3c1-1.6,2.5-2.8,4.3-3.6c1.9-0.8,4.1-1.2,6.6-1.2c2,0,3.6,0.4,4.7,1.1 c1.2,0.7,2,1.6,2.7,2.7c0.6,1.1,1,2.2,1.2,3.4c0.2,1.2,0.3,2.3,0.3,3.3V56.3z"></path> <path fill="#24231D" d="M254.4,56.3c-1.9,0-3.6-0.4-5.2-1.1c-1.6-0.8-2.9-1.8-4-3.1s-2-2.8-2.6-4.6c-0.6-1.8-0.9-3.7-0.9-5.7 c0-2.2,0.3-4.2,1-6c0.7-1.8,1.6-3.4,2.8-4.8c1.2-1.3,2.6-2.4,4.3-3.1c1.7-0.8,3.5-1.1,5.5-1.1c2.1,0,3.9,0.4,5.5,1.2 c1.6,0.8,2.8,2,3.8,3.6v-4.3h9.1v26.4c0,2.3-0.4,4.3-1.3,6.2c-0.8,1.8-2,3.4-3.6,4.7c-1.5,1.3-3.4,2.3-5.6,3 c-2.2,0.7-4.6,1.1-7.2,1.1c-3.1,0-5.8-0.5-8.1-1.4c-2.3-1-4.3-2.3-6.1-4.1l5.5-5.7c1.1,1,2.4,1.8,3.8,2.5c1.5,0.7,3.1,1,4.8,1 c1,0,1.9-0.1,2.7-0.4c0.9-0.3,1.6-0.7,2.3-1.2c0.7-0.6,1.2-1.3,1.6-2.2s0.6-2,0.6-3.3v-1.9c-0.8,1.5-2.1,2.7-3.6,3.4 C258,55.9,256.3,56.3,254.4,56.3z M258.2,48c1.1,0,2-0.2,2.8-0.7c0.8-0.5,1.5-1.2,2.2-2.2v-5.2c-0.5-1.3-1.3-2.4-2.3-3.2 c-1-0.8-2.1-1.2-3.2-1.2c-0.7,0-1.4,0.2-2.1,0.5c-0.6,0.3-1.2,0.8-1.7,1.4c-0.5,0.6-0.8,1.3-1.1,2c-0.3,0.8-0.4,1.6-0.4,2.5 c0,1.8,0.5,3.3,1.6,4.4C255.2,47.4,256.5,48,258.2,48z"></path> <path fill="#24231D" d="M278.8,24.8v-8.8h10.5v8.8H278.8z M278.8,56.3V27.2h10.5v29.1H278.8z"></path> <path fill="#24231D" d="M323.5,56.3H313V39.9c0-1.4-0.3-2.5-1-3.1c-0.6-0.6-1.4-1-2.2-1c-0.9,0-1.8,0.4-2.8,1.2 c-1,0.8-1.7,1.8-2.2,3v16.3h-10.5V27.2h9.5v4.3c1-1.6,2.5-2.8,4.3-3.6c1.9-0.8,4.1-1.2,6.6-1.2c2,0,3.6,0.4,4.7,1.1 c1.2,0.7,2,1.6,2.7,2.7c0.6,1.1,1,2.2,1.2,3.4c0.2,1.2,0.3,2.3,0.3,3.3V56.3z"></path> <path fill="#24231D" d="M416.2,36.2c-2,0-3.9,0.2-5.5,0.7c-1.7,0.4-2.9,1.2-3.7,2.2v17.2h-10.5V27.2h9.6v5.5c1-2,2.3-3.5,3.8-4.5 c1.5-1.1,3.2-1.6,4.9-1.6c0.7,0,1.1,0,1.3,0.1V36.2z"></path> <path fill="#24231D" d="M420,24.8v-8.8h10.5v8.8H420z M420,56.3V27.2h10.5v29.1H420z"></path> <path fill="#24231D" d="M464.7,56.3h-10.5V39.9c0-1.4-0.3-2.5-1-3.1c-0.6-0.6-1.4-1-2.2-1c-0.9,0-1.8,0.4-2.8,1.2 c-1,0.8-1.7,1.8-2.2,3v16.3h-10.5V27.2h9.5v4.3c1-1.6,2.5-2.8,4.3-3.6c1.9-0.8,4.1-1.2,6.6-1.2c2,0,3.6,0.4,4.7,1.1 c1.2,0.7,2,1.6,2.7,2.7c0.6,1.1,1,2.2,1.2,3.4c0.2,1.2,0.3,2.3,0.3,3.3V56.3z"></path> <path fill="#24231D" d="M480.7,56.3c-1.9,0-3.6-0.4-5.2-1.1c-1.6-0.8-2.9-1.8-4-3.1c-1.1-1.3-2-2.8-2.6-4.6 c-0.6-1.8-0.9-3.7-0.9-5.7c0-2.2,0.3-4.2,1-6c0.7-1.8,1.6-3.4,2.8-4.8c1.2-1.3,2.6-2.4,4.3-3.1c1.7-0.8,3.5-1.1,5.5-1.1 c2.1,0,3.9,0.4,5.5,1.2c1.6,0.8,2.8,2,3.8,3.6v-4.3h9.1v26.4c0,2.3-0.4,4.3-1.3,6.2c-0.8,1.8-2,3.4-3.6,4.7 c-1.5,1.3-3.4,2.3-5.6,3c-2.2,0.7-4.6,1.1-7.2,1.1c-3.1,0-5.8-0.5-8.1-1.4c-2.3-1-4.3-2.3-6.1-4.1l5.5-5.7c1.1,1,2.3,1.8,3.8,2.5 c1.5,0.7,3.1,1,4.8,1c1,0,1.9-0.1,2.7-0.4c0.9-0.3,1.6-0.7,2.3-1.2c0.7-0.6,1.2-1.3,1.6-2.2s0.6-2,0.6-3.3v-1.9 c-0.8,1.5-2.1,2.7-3.6,3.4C484.3,55.9,482.6,56.3,480.7,56.3z M484.5,48c1.1,0,2-0.2,2.8-0.7c0.8-0.5,1.5-1.2,2.2-2.2v-5.2 c-0.5-1.3-1.3-2.4-2.3-3.2c-1-0.8-2.1-1.2-3.2-1.2c-0.7,0-1.4,0.2-2.1,0.5c-0.6,0.3-1.2,0.8-1.7,1.4c-0.5,0.6-0.8,1.3-1.1,2 c-0.3,0.8-0.4,1.6-0.4,2.5c0,1.8,0.5,3.3,1.6,4.4C481.4,47.4,482.8,48,484.5,48z"></path> </g> </g> </svg> 