<?xml version="1.0" encoding="UTF-8"?> <svg xmlns="http://www.w3.org/2000/svg" viewBox="0 0 581.84 14.36"> <defs> <style>.cls-1{fill:#1467a3;}</style> </defs> <title>Asset 8</title> <g id="Layer_2" data-name="Layer 2"> <g id="Слой_3" data-name="Слой 3"> <path class="cls-1" d="M373.24,14.36h208.6L580.37,1.74c-.42,0-42,1.48-70,0C482.22.28,412.45-.42,399.68,1a223.08,223.08,0,0,1-33.89,1.43,28.74,28.74,0,0,1-4-.26c-3.78-.68-5.68-1-38.88-.77-31.43.23-45-.4-54-.81-4.4-.2-7.88-.36-11.88-.37H235.63c-7.41,0-14.56,0-19.24,0h-5.73c-12.72-.05-36.4-.12-61.15,0-13.68.07-21.38,0-28.18-.11-7.56-.1-13.54-.18-24.24,0-8.3.17-15.06.44-21,.67-8.41.34-15,.6-22.69.47-6.51-.11-13.13.26-19,.59-3.33.19-7.69.43-9.95.41C17.16,0,11,1.36,8.08,1.63L0,.93V14.36H373.24Z"></path> </g> </g> </svg> 