<?xml version="1.0" encoding="UTF-8"?> <svg xmlns="http://www.w3.org/2000/svg" viewBox="0 0 529.05 7.18"> <defs> <style>.cls-1{fill:#b7def9;}</style> </defs> <title>Asset 3</title> <g id="Layer_2" data-name="Layer 2"> <g id="Слой_3" data-name="Слой 3"> <path class="cls-1" d="M339.37,0H529.05l-1.34,6.31c-.38,0-38.22-.74-63.65,0-25.6.74-89,1.09-100.64.38C352,6,342.51,5.77,332.6,6c-2.85.06-3.36.11-3.6.13-3.44.34-5.16.51-35.35.39-28.58-.12-40.94.19-49.12.4-4,.1-7.16.18-10.8.18H191.54c-11.56,0-33.09.06-55.6,0-12.43,0-19.44,0-25.62,0-6.88,0-12.31.09-22,0-7.55-.08-13.7-.22-19.12-.34-7.64-.16-13.68-.3-20.64-.23-5.91,0-11.93-.13-17.24-.3-3-.09-7-.21-9-.2a60.27,60.27,0,0,1-14.89.33L0,6.71V0H339.37Z"></path> </g> </g> </svg> 