<?xml version="1.0" encoding="UTF-8"?> <svg xmlns="http://www.w3.org/2000/svg" xmlns:xlink="http://www.w3.org/1999/xlink" width="1634px" height="315px" viewBox="0 0 1634 315"> <!-- Generator: Sketch 52.6 (67491) - http://www.bohemiancoding.com/sketch --> <title>Group 4</title> <desc>Created with Sketch.</desc> <defs> <path d="M119.507482,5.13035294 C203.392809,-16.3755594 289.346498,34.4950332 310.853425,118.377318 C332.363393,202.25656 281.489758,288.219375 197.612543,309.726302 C113.722148,331.233228 27.7674439,280.361621 6.26051765,196.480351 C-15.2545198,112.600094 35.6282396,26.6403209 119.507482,5.13035294" id="path-1"></path> <radialGradient cx="41.3931438%" cy="39.8059888%" fx="41.3931438%" fy="39.8059888%" r="74.7041024%" gradientTransform="translate(0.413931,0.398060),scale(0.999997,1.000000),rotate(53.684278),scale(1.000000,0.997302),translate(-0.413931,-0.398060)" id="radialGradient-3"> <stop stop-color="#78C500" offset="0%"></stop> <stop stop-color="#009149" offset="100%"></stop> </radialGradient> </defs> <g id="Page-1" stroke="none" stroke-width="1" fill="none" fill-rule="evenodd"> <g id="Group-4" transform="translate(-1.000000, 0.000000)"> <g id="Group"> <g id="Group-178"> <mask id="mask-2" fill="white"> <use xlink:href="#path-1"></use> </mask> <g id="Clip-177"></g> <path d="M119.507482,5.13035294 C203.392809,-16.3755594 289.346498,34.4950332 310.853425,118.377318 C332.363393,202.25656 281.489758,288.219375 197.612543,309.726302 C113.722148,331.233228 27.7674439,280.361621 6.26051765,196.480351 C-15.2545198,112.600094 35.6282396,26.6403209 119.507482,5.13035294" id="Fill-176" fill="url(#radialGradient-3)" mask="url(#mask-2)"></path> </g> <path d="M86.7199516,100.128386 C107.525256,104.807551 128.692525,107.681968 151.630069,108.426174 C189.881616,109.670234 231.61288,108.592454 281.595293,108.423132 L299.089188,108.36534 C303.24011,108.351145 304.429419,113.061742 299.848602,114.366636 L284.432195,118.755825 C190.668405,147.036642 119.233817,181.886542 67.4841698,266.8243 C65.4259452,270.203641 62.0232842,268.378614 62.5860008,264.34125 C68.0935259,225.069716 73.7865954,192.518336 91.7093719,156.937412 C81.3026639,142.365588 84.1649141,126.280005 73.5503559,102.559727 C72.3468521,99.8759235 71.4241997,97.7436839 70.8087601,96.067701 C69.2767516,91.9147513 71.6624671,90.3452283 74.8704585,91.759624 C82.7302403,95.2312305 76.9793783,97.9413952 86.7199516,100.128386" id="Fill-179" fill="#FEFEFE"></path> <path d="M94.0990545,100.929664 C114.901318,105.60883 136.071628,108.483247 159.00613,109.227452 C193.064171,110.333621 229.878002,109.598541 272.824937,109.304509 C188.721621,136.330113 121.106409,174.862511 72.2301647,249.676441 C77.230738,217.079435 83.571692,188.548184 99.0884749,157.738691 C96.6774118,154.364419 94.1710417,150.861382 91.5957262,147.178883 C92.2131936,145.889198 92.8367444,144.604582 93.483615,143.325035 C83.8525433,129.846199 72.563739,114.386195 62.5240642,93.3629005 C62.7430674,91.3016342 64.6603594,90.7125562 67.033908,91.7589048 C74.8947037,95.2365947 84.3584813,98.7457155 94.0990545,100.929664" id="Fill-180" fill="#D8D8D9"></path> <path d="M73.7905121,70.4433763 C94.5958169,75.1225421 115.763085,77.9959453 138.701644,78.7401507 C176.949135,79.9852245 218.68344,78.9074448 268.665853,78.7381229 L286.157721,78.6803303 C290.31067,78.6661357 291.500993,83.3767325 286.919162,84.6816266 L271.502756,89.069802 C177.739979,117.350619 103.506003,157.806392 51.7523003,242.743137 C49.6920479,246.128561 46.162649,245.484732 46.8551452,241.46359 C53.5631324,202.589507 60.8571559,162.832313 78.7799324,127.251389 C68.3732244,112.68362 56.0177934,95.7950255 45.4032351,72.0757614 C44.2027731,69.3909443 43.2740372,67.5030555 42.6616394,65.833156 C41.1357142,61.6802063 44.0466319,59.6736908 47.5618362,61.5281207 C51.0770404,63.3815368 64.0509527,68.256386 73.7905121,70.4433763" id="Fill-181" fill="#FEFEFE"></path> </g> <path d="M559.630147,80.2625322 L530.088962,80.2767162 C470.905278,80.3060973 420.196524,229.124452 490.170167,229.104189 L535.129342,229.090005 C561.056651,229.090005 580.310395,238.498039 571.786834,263.851909 L560.043509,298.767811 L512.35797,298.779969 L473.570854,298.394975 C423.95224,297.900562 391.927845,273.604411 380.400319,236.726054 C367.924492,196.818403 385.541,113.579696 436.664129,60.2570367 C466.327904,29.3146767 507.415864,10.6303179 560.101258,10.6252522 L657.429726,10.6130945 L642.217404,54.2258043 C632.38689,82.4053269 612.300343,80.3060973 600.838672,80.2939396 L559.630147,80.2625322 Z" id="Fill-106" fill="#151616"></path> <path d="M1097.05925,119.886503 C1052.03625,119.877385 985.426239,119.863201 940.406276,119.863201 C914.478967,119.863201 902.715379,127.013955 898.083295,141.964887 L883.336005,189.537967 C928.355969,189.547086 994.97206,189.56127 1039.98898,189.56127 C1065.91629,189.56127 1077.67988,182.410516 1082.31196,167.459584 L1097.05925,119.886503 Z" id="Fill-107" fill="#151616"></path> <path d="M1058.91447,229.113307 C1013.89248,229.104189 947.281455,229.090005 902.261491,229.090005 C876.334183,229.090005 864.570595,236.240759 859.938511,251.192704 L845.19426,298.767811 C890.214224,298.77389 956.827276,298.788074 1001.84724,298.788074 C1027.77455,298.788074 1039.5351,291.63732 1044.16819,276.689427 L1058.91447,229.113307 Z M1133.42091,10.6566596 C1088.39791,10.6475413 1021.78384,10.6333573 976.766917,10.6333573 C950.839609,10.6333573 939.076021,17.7841113 934.443937,32.7360562 L919.696647,80.3081236 C964.71661,80.3172419 1031.33371,80.3314259 1076.35064,80.3314259 C1102.27795,80.3314259 1114.04052,73.1806719 1118.67362,58.2297402 L1133.42091,10.6566596 Z" id="Fill-108" fill="#151616"></path> <path d="M739.528649,80.0183651 L778.528525,80.0325491 C811.756532,80.0447068 804.172154,121.546029 787.357041,161.990645 C772.534779,197.648166 746.274146,229.110268 714.938687,229.104189 L649.922346,229.090005 C623.995038,229.090005 612.035913,236.240759 606.993507,251.192704 L590.939264,298.767811 L638.615685,298.779969 L685.221216,298.394975 C726.550304,298.050507 760.38417,295.065791 799.955458,259.506545 C841.767815,221.936212 890.524245,124.340274 882.169879,67.8930855 C875.624984,23.6664119 851.859719,10.6303179 794.307193,10.6252522 L689.433859,10.6130945 L628.362692,189.337365 L667.165005,189.385996 C690.257543,189.409298 701.845857,189.702096 714.126148,156.646323 L739.528649,80.0183651 Z" id="Fill-109" fill="#151616"></path> <path d="M1070.84219,298.788074 L1144.78735,298.788074 L1176.56251,208.067315 L1209.59194,180.256576 L1235.61752,262.308895 C1243.6639,287.665804 1251.94126,298.788074 1270.01368,298.788074 L1326.625,298.788074 L1268.22144,137.795809 L1408.68644,10.3689273 L1317.96872,10.3689273 L1232.70474,101.092725 C1222.77697,111.65574 1212.73065,122.057666 1202.65091,134.469665 L1201.79784,134.469665 L1244.36499,10.3689273 L1170.41882,10.3689273 L1070.84219,298.788074 Z" id="Fill-110" fill="#151616"></path> <path d="M1507.0658,11 L1481,147.665032 L1497.90231,147.665032 L1523.96811,11 L1507.0658,11 Z M1552.26507,147.665032 L1568.99273,147.665032 L1591.96837,25.5976992 L1631.87185,25.5976992 L1634.69364,11 L1538.35824,11 L1535.53645,25.5976992 L1575.23975,25.5976992 L1552.26507,147.665032 Z" id="Fill-111" fill="#009149"></path> </g> </g> </svg> 